<svg width="591" height="148" viewBox="0 0 591 148" fill="none" xmlns="http://www.w3.org/2000/svg">
<path d="M62.9541 27.4259C66.7986 28.5687 70.7032 29.3506 74.6678 29.8919C75.689 30.0121 76.7102 30.1324 77.6714 30.2527C77.7314 29.8919 77.7915 29.4708 77.8516 29.11C78.2721 26.5237 78.7526 23.8774 79.1731 21.2911C80.1342 15.4571 81.1554 9.56287 83.0176 3.96939C83.378 2.94693 83.7385 1.92446 84.0989 0.901999C81.6961 0.541129 79.2332 0.300551 76.8304 0.180261C76.2297 0.120116 75.629 0.120117 75.0883 0.120117C74.6678 3.48823 73.8268 6.7962 72.6254 9.92374C70.9435 14.4346 68.7809 18.765 66.1378 22.8549C65.1767 24.3585 64.0954 25.8621 62.9541 27.4259Z" fill="#000000"/>
<path d="M76.4694 41.1992C76.5895 39.3348 76.7097 37.4703 76.95 35.6058C74.3069 35.3652 71.7238 34.9442 69.1408 34.463C65.8369 33.8616 62.5331 33.0195 59.3493 31.9971C58.7486 32.7188 58.0879 33.4406 57.4271 34.1623C53.1621 38.8536 48.3565 43.0036 43.0703 46.492C41.5685 47.5145 40.0067 48.4768 38.3848 49.379C39.3459 53.7094 39.7063 58.2804 39.3459 62.671C39.2258 64.4753 38.9855 66.3398 38.625 68.1442C39.5261 68.0239 40.3671 67.9036 41.2681 67.7833C53.4624 66.0993 65.5366 63.7536 77.4305 60.6261C76.4694 54.1906 76.109 47.6949 76.4694 41.1992Z" fill="#000000"/>
<path d="M33.3386 84.0227C32.9782 84.8648 32.5577 85.6466 32.1973 86.4285C33.8792 87.03 35.5612 87.6916 37.1831 88.4735C42.7096 91.0597 47.8756 94.488 52.3209 98.638C52.441 98.7582 52.6212 98.8785 52.7413 98.9988C60.6106 88.5938 68.1794 77.888 75.0275 66.8213C62.5929 69.8887 50.0382 72.1742 37.3033 73.6778C36.222 77.2264 34.9004 80.6546 33.3386 84.0227Z" fill="#000000"/>
<path d="M83.0771 30.6137C86.6814 30.734 90.3457 30.6739 93.9499 30.3731C95.5117 26.584 96.9534 22.7949 98.335 18.8854C99.7767 14.6152 101.158 10.2847 102.059 5.834C101.519 5.59342 100.918 5.35284 100.377 5.11226C96.8933 3.72892 93.2891 2.58617 89.5648 1.74414C87.5224 6.79632 86.321 12.2094 85.2998 17.5623C84.8192 20.1485 84.3987 22.7949 83.9782 25.3811C83.6779 27.1855 83.3775 28.8695 83.0771 30.6137Z" fill="#000000"/>
<path d="M85.9011 36.0867C84.6997 36.0867 83.5583 36.0265 82.3569 35.9664C81.6962 42.2215 81.576 48.4765 82.1767 54.6715C85.6007 48.5367 88.7244 42.2816 91.6078 35.9062C89.6855 36.0265 87.7633 36.0867 85.9011 36.0867Z" fill="#000000"/>
<path d="M100.077 29.5917C105.844 28.5692 111.491 26.9453 116.957 24.6598C119.6 23.517 122.183 22.254 124.646 20.8707C121.522 17.8033 118.098 14.9765 114.374 12.5105C112.091 10.9468 109.688 9.56342 107.105 8.24023C105.544 15.217 103.141 22.0134 100.498 28.6895C100.317 28.9301 100.197 29.291 100.077 29.5917Z" fill="#000000"/>
<path d="M101.639 34.7642C100.318 35.0047 98.9961 35.1852 97.6746 35.3656C95.8725 39.6359 93.8901 43.846 91.8477 47.996C90.1057 51.4243 88.3036 54.7924 86.4414 58.1004C96.4131 55.1533 106.205 51.725 115.816 47.6953C123.144 44.5678 130.293 41.1395 137.321 37.3504C136.901 36.6287 136.48 35.9069 136.06 35.2453C133.897 31.6968 131.374 28.2084 128.431 24.9004C125.848 26.404 123.144 27.7873 120.381 28.9902C114.374 31.6366 108.127 33.6816 101.639 34.7642Z" fill="#000000"/>
<path d="M83.6777 64.5355C84.759 69.2869 86.2007 73.9181 88.0629 78.4289C90.6459 84.5036 93.9498 90.2173 97.9144 95.5101C98.0946 95.7507 98.3349 96.0514 98.5151 96.292C101.639 91.2398 105.303 86.4884 109.328 82.0978C114.374 76.6246 120.02 71.6927 126.208 67.6029C132.155 63.6934 138.522 60.4456 145.19 57.9195C144.649 55.5739 144.049 53.2282 143.268 50.9427C142.306 47.9956 141.105 45.0485 139.783 42.2217C135.458 44.5673 131.133 46.7326 126.688 48.7775C112.812 55.213 98.395 60.4456 83.6777 64.5355Z" fill="#000000"/>
<path d="M146.212 63.2725C145.371 63.5732 144.47 63.9341 143.629 64.2949C136.721 67.242 130.233 71.0312 124.286 75.542C118.279 80.2333 112.933 85.6464 108.247 91.6609C106.085 94.4877 104.102 97.4348 102.24 100.502C106.205 104.772 110.59 108.682 115.215 112.291C119.601 115.659 124.166 118.786 128.731 121.854C131.555 118.666 134.078 115.238 136.3 111.629C139.003 107.238 141.286 102.367 143.088 97.1341C144.71 92.3225 145.911 87.0899 146.512 81.5565C147.173 75.6022 147.053 69.4072 146.212 63.2725Z" fill="#000000"/>
<path d="M86.1411 86.9097C83.3778 81.4966 81.0952 75.7829 79.4733 69.8887C72.385 81.2561 64.5758 92.2024 56.5264 102.848C57.6076 104.051 58.6889 105.314 59.7101 106.637C61.9928 109.524 64.1553 112.592 66.0776 115.779C68.0599 119.087 69.8019 122.576 71.3037 126.124C74.1871 125.402 77.1305 124.861 80.074 124.621C81.5157 124.5 82.9574 124.44 84.399 124.44C85.24 124.44 86.081 124.44 86.8619 124.5C87.4626 121.794 88.1835 119.147 89.0245 116.501C90.7665 111.208 92.9891 106.096 95.6322 101.224C91.9679 96.7735 88.7842 92.022 86.1411 86.9097Z" fill="#000000"/>
<path d="M85.8408 129.853C85.3603 129.853 84.9398 129.853 84.4592 129.853C82.3568 129.853 80.3144 129.973 78.2119 130.274C76.5299 130.514 74.908 130.815 73.2861 131.236C73.7667 132.499 74.1872 133.762 74.6077 135.025C75.8692 138.934 76.8904 142.964 77.7914 146.994C80.3744 146.813 83.0175 146.513 85.7207 146.092C85.5405 145.37 85.4204 144.708 85.3002 143.987C84.8797 140.919 84.8797 137.852 85.1801 134.724C85.3002 133.04 85.5405 131.476 85.8408 129.853Z" fill="#000000"/>
<path d="M115.636 119.327C109.929 115.117 104.403 110.667 99.477 105.494C98.4558 107.479 97.4947 109.524 96.5936 111.569C94.7915 115.959 93.3498 120.47 92.2686 125.101C95.3321 125.643 98.2756 126.545 101.159 127.627C104.643 129.011 108.067 130.635 111.311 132.62C112.332 133.221 113.353 133.883 114.374 134.544C114.435 134.484 114.555 134.424 114.615 134.364C118.339 131.838 121.823 129.011 125.007 125.823C124.887 125.703 124.707 125.643 124.586 125.522C121.523 123.598 118.519 121.493 115.636 119.327Z" fill="#000000"/>
<path d="M91.1873 130.395C91.0071 131.417 90.8269 132.379 90.7068 133.402C90.3463 136.529 90.1661 139.657 90.5265 142.784C90.6467 143.506 90.7668 144.228 90.947 144.95C97.2544 143.386 103.442 140.98 109.208 137.732C106.505 136.108 103.742 134.605 100.859 133.342C97.735 132.079 94.4912 131.056 91.1873 130.395Z" fill="#000000"/>
<path d="M41.5696 113.493L41.5094 113.553C41.3891 113.734 41.2688 113.854 41.1484 114.034C41.3289 113.854 41.4493 113.674 41.5696 113.493Z" fill="#000000"/>
<path d="M48.717 104.171C48.9573 103.871 49.1375 103.63 49.3778 103.329C47.9962 102.006 46.5545 100.743 44.9927 99.5402C41.3284 96.7736 37.4238 94.4881 33.2189 92.6236C32.0175 92.1424 30.816 91.6612 29.5546 91.2402C27.332 95.1497 24.9291 98.9388 22.286 102.608C19.2825 106.878 16.0387 110.968 12.7949 115.058C13.5758 116.2 14.4769 117.403 15.438 118.666C18.5617 122.696 22.1058 126.425 26.0104 129.733C26.3108 129.974 26.551 130.214 26.8514 130.455C32.1977 125.282 36.9432 119.448 41.4485 113.554C43.9715 110.426 46.3142 107.299 48.717 104.171Z" fill="#000000"/>
<path d="M66.0772 127.688C63.4341 121.733 60.1302 116.08 56.1656 110.907C55.2044 109.644 54.1832 108.441 53.102 107.238C52.5613 107.9 52.0808 108.561 51.5401 109.223C45.8935 116.561 40.4271 124.079 34.0596 130.815C33.0985 131.777 32.1975 132.8 31.2363 133.702C33.7593 135.506 36.4625 137.13 39.1656 138.574C40.9077 139.476 42.7098 140.378 44.5119 141.16C44.572 141.1 44.632 141.1 44.632 141.04C46.3741 139.416 48.2363 137.852 50.0984 136.409C52.6815 134.364 55.3846 132.559 58.3281 130.996C60.9111 129.793 63.4341 128.65 66.0772 127.688Z" fill="#000000"/>
<path d="M65.1768 133.822C61.2121 135.567 57.4877 137.672 54.0037 140.318C52.7422 141.28 51.4807 142.303 50.2793 143.385C51.4807 143.807 52.6821 144.167 53.8835 144.468C58.8694 145.851 64.1556 146.693 69.682 146.994C70.523 147.054 71.364 147.054 72.2651 147.054C71.1237 142.183 69.8022 137.371 68.1202 132.68C67.099 133.041 66.1379 133.462 65.1768 133.822Z" fill="#000000"/>
<path d="M21.3851 69.7677C23.6077 69.5873 25.8303 69.4069 27.9928 69.2264C29.6748 69.1061 31.3568 68.9257 32.9787 68.7453C33.279 67.4822 33.5193 66.159 33.6995 64.896C34.12 61.2272 34.1801 57.6185 33.6995 53.9496C33.5794 53.288 33.5193 52.6264 33.3391 51.9648C29.6748 53.7692 25.8303 55.2127 21.9257 56.4156C15.2579 58.4003 8.28972 59.5431 1.38162 59.5431C0.600706 63.4525 0.120141 67.4221 0 71.3917C4.98584 71.2714 9.97169 70.8503 14.8975 70.3692C17.1201 70.1286 19.2826 69.9482 21.3851 69.7677Z" fill="#000000"/>
<path d="M19.3426 83.3612C21.9257 83.7221 24.4486 84.1431 26.9716 84.8047C27.9327 82.9402 28.7737 81.0757 29.6147 79.151C30.2755 77.5271 30.8762 75.9032 31.4769 74.2793C30.696 74.3394 29.915 74.4597 29.0741 74.5199C25.1695 74.8808 21.2649 75.1815 17.3603 75.5423C13.4557 75.9032 9.55117 76.3242 5.58652 76.5648C3.78441 76.6851 1.9823 76.7452 0.120117 76.8054C0.240258 79.151 0.420468 81.5568 0.780891 83.9025C0.901032 83.9025 1.02117 83.8423 1.08124 83.8423C4.68547 83.2409 8.28969 82.88 11.954 82.88C14.4169 82.88 16.8798 83.0605 19.3426 83.3612Z" fill="#000000"/>
<path d="M24.208 89.7364C22.5861 89.3756 20.9042 89.0147 19.2222 88.7741C16.7593 88.4734 14.2364 88.293 11.7735 88.293C9.25051 88.293 6.72755 88.4734 4.2046 88.7741C3.36361 88.8944 2.52263 89.0147 1.68164 89.1951C1.74171 89.3756 1.74171 89.6162 1.80178 89.7966C2.88305 94.8488 4.68516 99.9611 7.08798 105.134C7.86889 106.818 8.76995 108.502 9.73108 110.246C10.8724 108.863 11.9537 107.419 13.035 106.036C17.1197 100.803 20.9042 95.3901 24.208 89.7364Z" fill="#000000"/>
<path d="M45.5934 19.0058C48.8372 21.4116 52.3213 23.3964 56.0457 24.9601C56.5863 25.2007 57.0669 25.3812 57.6075 25.5616C57.6075 25.5015 57.6676 25.5015 57.6676 25.4413C61.2117 20.8102 64.2753 15.8181 66.6181 10.4051C67.9997 7.03696 69.081 3.6087 69.6216 0C69.5015 0 69.3813 0 69.2612 0C63.7948 0.36087 58.3884 1.26305 53.2824 2.76667C48.3567 4.21015 43.491 6.19493 38.7454 8.78116C38.2648 9.02174 37.7843 9.32247 37.3037 9.56305C37.9645 10.7058 38.6853 11.8486 39.5263 12.9312C41.2684 15.2768 43.3108 17.2616 45.5934 19.0058Z" fill="#000000"/>
<path d="M29.675 31.2756C31.4771 33.5009 33.099 35.8466 34.4205 38.3727C35.3216 40.177 36.1626 42.0415 36.8834 43.906C39.5265 42.3422 42.1096 40.598 44.5724 38.7335C47.9364 36.0872 51.06 33.0799 53.9434 29.8922C53.5229 29.7118 53.1024 29.5314 52.742 29.3509C47.6961 27.1256 42.9505 24.1785 38.9258 20.3292C36.9435 18.4045 35.1414 16.2995 33.6396 13.9538C33.3393 13.4727 33.0389 12.9915 32.7386 12.4502C30.3958 14.0741 28.0531 15.8183 25.7704 17.8031C24.2686 19.0661 22.827 20.4495 21.3252 21.9531C24.3888 24.8401 27.092 28.0277 29.675 31.2756Z" fill="#000000"/>
<path d="M27.7525 48.5969C29.1942 47.9955 30.6358 47.2737 32.0775 46.552C31.7772 45.6498 31.4768 44.7476 31.1164 43.8455C29.7948 40.8382 28.173 38.0114 26.1906 35.365C23.6076 32.0571 20.8444 28.8092 17.7207 25.9824C16.8797 26.9447 16.0387 28.0274 15.1377 29.2302C12.014 33.3201 9.31085 37.831 7.02817 42.6426C5.28613 46.3114 3.90451 50.1607 2.82324 54.0701C5.16599 54.01 7.50873 53.8295 9.79141 53.5288C15.9186 52.6868 21.9857 51.0027 27.7525 48.5969Z" fill="#000000"/>
<path d="M231.045 91.8963C231.045 84.1392 229.51 77.994 226.441 73.4607C223.373 68.9273 218.518 66.6606 211.877 66.6606C208.859 66.6606 206.016 67.114 203.35 68.0206C200.684 68.9273 198.546 69.9347 196.936 71.0429V116.527C198.244 116.83 199.929 117.107 201.992 117.359C204.054 117.61 206.545 117.736 209.462 117.736C216.204 117.736 221.486 115.445 225.309 110.861C229.133 106.277 231.045 99.9556 231.045 91.8963ZM249.759 92.1985C249.759 98.5452 248.829 104.262 246.967 109.35C245.106 114.437 242.439 118.794 238.968 122.421C235.497 126.048 231.296 128.818 226.366 130.732C221.436 132.646 215.852 133.603 209.613 133.603C203.576 133.603 197.816 133.15 192.332 132.243C186.849 131.336 182.296 130.329 178.674 129.221V17.3982L196.936 14.376V55.3272C199.049 54.2191 201.639 53.2117 204.708 52.305C207.777 51.3983 211.173 50.945 214.896 50.945C220.43 50.945 225.385 51.9272 229.762 53.8917C234.139 55.8561 237.786 58.6517 240.704 62.2784C243.622 65.9051 245.86 70.2621 247.42 75.3495C248.979 80.437 249.759 86.0533 249.759 92.1985ZM296.093 133.15C290.66 133.049 286.157 132.445 282.585 131.336C279.013 130.228 276.171 128.642 274.058 126.576C271.945 124.511 270.461 121.942 269.606 118.87C268.751 115.797 268.323 112.296 268.323 108.367V17.3982L286.585 14.376V104.892C286.585 107.108 286.761 108.972 287.113 110.483C287.465 111.994 288.094 113.279 289 114.336C289.905 115.394 291.138 116.2 292.697 116.754C294.257 117.308 296.244 117.736 298.659 118.039L296.093 133.15ZM341.219 118.794C346.854 118.794 351.13 118.492 354.048 117.888V97.6385C353.042 97.3363 351.583 97.0341 349.671 96.7319C347.76 96.4296 345.647 96.2785 343.332 96.2785C341.32 96.2785 339.283 96.4296 337.22 96.7319C335.157 97.0341 333.296 97.5882 331.636 98.3941C329.976 99.2 328.642 100.333 327.636 101.794C326.63 103.255 326.127 105.093 326.127 107.31C326.127 111.642 327.485 114.639 330.202 116.301C332.919 117.963 336.591 118.794 341.219 118.794ZM339.71 50.6428C345.747 50.6428 350.828 51.3983 354.954 52.9095C359.079 54.4206 362.374 56.5361 364.839 59.2562C367.304 61.9762 369.065 65.2754 370.121 69.154C371.178 73.0325 371.706 77.2888 371.706 81.9229V129.825C368.889 130.43 364.638 131.16 358.953 132.016C353.268 132.873 346.854 133.301 339.71 133.301C334.981 133.301 330.655 132.848 326.731 131.941C322.807 131.034 319.461 129.573 316.694 127.559C313.927 125.544 311.764 122.925 310.204 119.701C308.645 116.477 307.865 112.498 307.865 107.763C307.865 103.23 308.746 99.4015 310.506 96.2785C312.267 93.1555 314.657 90.6118 317.675 88.6474C320.694 86.6829 324.19 85.2726 328.165 84.4163C332.139 83.56 336.289 83.1318 340.616 83.1318C342.628 83.1318 344.741 83.2577 346.955 83.5096C349.168 83.7614 351.533 84.1896 354.048 84.794V81.7718C354.048 79.6562 353.796 77.6414 353.293 75.7273C352.79 73.8133 351.91 72.1258 350.652 70.6651C349.395 69.2043 347.734 68.071 345.672 67.2651C343.609 66.4591 341.018 66.0562 337.899 66.0562C333.673 66.0562 329.8 66.3584 326.278 66.9628C322.756 67.5673 319.889 68.2725 317.675 69.0784L315.411 54.2695C317.726 53.4635 321.096 52.6576 325.523 51.8517C329.95 51.0457 334.679 50.6428 339.71 50.6428ZM422.417 78.4473L439.169 52.6072H458.337L432.378 89.9318C437.811 96.9837 443.018 104.111 447.999 111.314C452.979 118.517 457.079 125.292 460.299 131.639H440.528C439.622 129.725 438.44 127.533 436.981 125.065C435.522 122.597 433.963 120.028 432.302 117.359C430.642 114.689 428.907 112.045 427.095 109.425C425.284 106.806 423.524 104.338 421.813 102.021C418.292 106.554 414.845 111.566 411.475 117.056C408.104 122.547 405.312 127.408 403.099 131.639H384.384C385.893 128.616 387.704 125.393 389.817 121.968C391.93 118.542 394.194 115.042 396.609 111.465C399.024 107.889 401.514 104.313 404.079 100.736C406.645 97.16 409.186 93.76 411.701 90.5363L385.591 52.6072H405.664L422.417 78.4473ZM469.505 92.5007C469.505 85.5496 470.537 79.4548 472.599 74.2162C474.662 68.9777 477.404 64.6206 480.825 61.1451C484.246 57.6695 488.17 55.0502 492.597 53.2872C497.024 51.5243 501.552 50.6428 506.18 50.6428C517.046 50.6428 525.523 54.0176 531.611 60.7673C537.698 67.5169 540.742 77.591 540.742 90.9896C540.742 91.997 540.716 93.1304 540.666 94.3896C540.616 95.6489 540.54 96.7822 540.44 97.7896H488.371C488.874 104.136 491.113 109.047 495.087 112.523C499.061 115.999 504.822 117.736 512.368 117.736C516.795 117.736 520.845 117.333 524.517 116.527C528.19 115.722 531.082 114.865 533.195 113.959L535.61 128.919C534.604 129.422 533.221 129.951 531.46 130.505C529.699 131.059 527.687 131.563 525.423 132.016C523.159 132.47 520.719 132.848 518.103 133.15C515.487 133.452 512.821 133.603 510.104 133.603C503.161 133.603 497.124 132.571 491.993 130.505C486.862 128.44 482.636 125.569 479.315 121.892C475.995 118.215 473.53 113.883 471.92 108.896C470.31 103.91 469.505 98.4445 469.505 92.5007ZM522.48 84.3407C522.48 81.8222 522.128 79.4296 521.423 77.1629C520.719 74.8962 519.688 72.9318 518.329 71.2695C516.971 69.6073 515.311 68.2977 513.349 67.3406C511.387 66.3836 509.047 65.9051 506.331 65.9051C503.514 65.9051 501.048 66.434 498.936 67.4917C496.823 68.5495 495.037 69.9347 493.578 71.6473C492.119 73.3599 490.987 75.3244 490.182 77.5407C489.377 79.757 488.824 82.0237 488.522 84.3407H522.48ZM587.528 133.15C582.095 133.049 577.592 132.445 574.02 131.336C570.449 130.228 567.606 128.642 565.493 126.576C563.38 124.511 561.896 121.942 561.041 118.87C560.186 115.797 559.758 112.296 559.758 108.367V17.3982L578.02 14.376V104.892C578.02 107.108 578.196 108.972 578.548 110.483C578.9 111.994 579.529 113.279 580.435 114.336C581.34 115.394 582.573 116.2 584.132 116.754C585.692 117.308 587.679 117.736 590.094 118.039L587.528 133.15Z" fill="#000000"/>
</svg>
