<svg width="246" height="74" viewBox="0 0 246 74" fill="none" xmlns="http://www.w3.org/2000/svg">
<path d="M30.303 40.113C28.2535 49.345 19.9914 50.5306 11.4485 51.0964L10.8625 53.5388C14.9794 53.8195 19.5403 54.2518 22.8401 55.7439C29.8547 58.9166 24.8471 68.6126 23.9573 71.8796H2.55981L18.5315 1.28H38.9417L30.303 40.113ZM49.9192 71.8796H28.2268C28.7517 68.5996 30.4452 59.0063 38.7776 55.7439C44.3516 53.5617 48.0957 53.4558 53.9973 53.4558L49.9192 71.8796ZM228.031 27.2771C234.002 27.2771 237.633 28.5674 240.861 30.3425L240.618 38.9763H237.955C236.664 33.5705 232.469 31.3915 227.628 31.3913C223.11 31.3913 220.931 33.8933 220.931 36.8786C220.932 45.2695 243.2 42.0424 243.2 55.3552C243.2 63.9078 236.503 67.6198 229.08 67.6198C223.836 67.6198 218.188 66.0056 215.364 63.6657L215.686 54.0642H218.671C219.801 61.2452 224.804 63.5046 230.129 63.5046C234.889 63.5045 237.552 60.7608 237.552 57.2107C237.551 47.6903 215.364 51.4011 215.364 38.4109C215.364 32.2789 220.124 27.2771 228.031 27.2771ZM172.689 27.8415C179.305 27.8416 183.339 29.6164 186.567 31.6335L186.243 40.5095H183.742C182.048 35.507 177.691 32.2791 171.156 32.279C163.49 32.279 159.86 38.4919 159.86 45.5114C159.86 53.9835 165.507 61.8913 174.302 61.8913C179.869 61.8913 183.58 59.1477 185.759 54.6296L189.068 56.4851C186.002 62.8592 180.757 67.1355 172.123 67.1355C160.666 67.1354 153.405 58.9863 153.405 47.3679C153.405 36.3139 162.038 27.8415 172.689 27.8415ZM143.859 55.8396C143.859 60.3576 145.956 62.2944 148.78 62.2946V64.5534L138.129 66.9743V57.3728C135.224 62.9399 130.303 66.7321 124.251 66.7321C115.537 66.732 111.584 59.9539 111.584 50.5945V37.6853C111.584 34.2158 109.325 32.3601 106.581 32.3601V30.2624L117.716 28.0027V49.8689C117.716 58.5021 121.589 61.3259 126.914 61.3259C132.724 61.3258 137.161 56.0009 137.968 48.4167V37.6853C137.968 34.2158 135.709 32.3601 132.885 32.3601V30.2624L143.859 28.0027V55.8396ZM98.8284 58.0984C98.8284 61.8099 100.765 63.4236 103.75 63.4236V66.0866H87.6936V63.4236C90.9208 63.4235 92.6956 61.8098 92.6956 58.0984V21.0642C92.6956 14.0445 90.517 13.1567 87.7737 13.3181V11.1394L98.8284 8.31516V58.0984ZM204.644 58.0984C204.644 61.7292 205.935 63.3435 209.566 63.3435V66.0866H193.59V63.3435C197.301 63.3433 198.592 61.8098 198.592 58.0984V39.5407C198.592 34.5384 196.414 33.5701 194.155 33.57V30.988C197.624 30.988 200.61 29.7783 202.143 27.9226H204.644V58.0984ZM201.335 13.237C203.836 13.237 205.611 15.093 205.612 17.5134C205.612 20.0147 203.675 21.8708 201.174 21.8708C198.915 21.8708 196.979 20.0146 196.979 17.5134C196.979 15.0931 199.076 13.2372 201.335 13.237Z" fill="#272D2B"/>
</svg>
