<svg width="603" height="161" viewBox="0 0 603 161" fill="none" xmlns="http://www.w3.org/2000/svg">
<g clip-path="url(#clip0_411_150)">
<path d="M102.656 63.0069L122.031 82.3813C126.467 86.8179 133.661 86.8179 138.097 82.3813L157.472 63.0069C161.908 58.5702 161.908 51.377 157.472 46.9403L138.097 27.5659C133.661 23.1293 126.467 23.1293 122.031 27.5659L102.656 46.9403C98.2196 51.377 98.2196 58.5702 102.656 63.0069Z" fill="black"/>
<path d="M107.817 96.5111L88.4367 77.1309C84.9282 73.6225 79.6934 72.8985 75.4609 74.9312C72.398 76.407 68.8338 76.9639 65.7151 75.5995C63.2926 74.5692 61.5105 72.982 60.2575 70.7823C58.3362 67.3852 58.726 63.2641 60.3967 59.7556C62.4016 55.551 61.6498 50.344 58.1691 46.8634L38.789 27.4832C34.3616 23.0559 27.1776 23.0559 22.7224 27.4832L3.34226 46.8634C-1.0851 51.2907 -1.0851 58.4748 3.34226 62.93L22.7224 82.3101C26.203 85.7908 31.3822 86.5426 35.5868 84.5377C39.1231 82.867 43.2442 82.4493 46.6413 84.3985C48.841 85.6515 50.4282 87.4615 51.4585 89.884C52.795 93.0026 52.266 96.5389 50.7902 99.574C48.7297 103.806 49.4815 109.041 52.99 112.55L72.3701 131.93C76.7975 136.357 83.9815 136.357 88.4367 131.93L107.817 112.55C112.244 108.122 112.244 100.938 107.817 96.4833V96.5111Z" fill="black"/>
<path d="M317.711 34.7506C318.547 34.7506 319.299 35.2797 319.577 36.0872L337.788 88.4915C338.4 90.2458 340.851 90.2736 341.519 88.5472L361.066 36.0593C361.345 35.2797 362.096 34.7785 362.932 34.7785H385.096C386.517 34.7785 387.463 36.2264 386.906 37.5351L334.808 159.803C334.502 160.527 333.778 161 332.998 161H310.388C308.94 161 307.966 159.469 308.606 158.16L325.536 122.992C325.759 122.49 325.786 121.933 325.592 121.404L293.263 37.4516C292.762 36.1429 293.737 34.7506 295.101 34.7506H317.711ZM422.743 0C423.829 0 424.72 0.891041 424.72 1.977V38.6211C424.72 40.3196 426.753 41.2663 428.145 40.2918C435.134 35.3632 443.71 32.5787 453.066 32.5787C479.241 32.5787 498.259 52.7107 498.259 80.5278C498.259 108.345 479.213 128.449 453.066 128.449C442.624 128.449 433.241 124.996 425.917 119.093C424.525 117.979 422.325 118.898 422.325 120.68V124.272C422.325 125.358 421.434 126.249 420.348 126.249H401.079C399.993 126.249 399.102 125.358 399.102 124.272V1.977C399.102 0.891041 399.993 0 401.079 0H422.743ZM556.26 32.5508C584.606 32.5508 602.9 51.7082 602.232 83.1453C602.232 84.2034 601.341 85.0387 600.283 85.0387H536.434C535.265 85.0387 534.374 86.0412 534.513 87.1828C536.351 101.495 544.37 108.818 556.232 108.818C565.588 108.818 572.159 104.224 575.306 96.4274C575.612 95.6477 576.364 95.0908 577.227 95.0908H598C599.28 95.0908 600.227 96.2881 599.865 97.5133C594.073 117.562 577.339 128.393 555.675 128.393C527.134 128.393 508.116 109.18 508.116 80.8341C508.116 52.293 528.248 32.523 556.232 32.523L556.26 32.5508ZM210.425 34.7506C211.288 34.7506 212.04 35.3075 212.318 36.115L231.392 94.9516C231.977 96.7893 234.566 96.7893 235.151 94.9516L254.058 36.115C254.308 35.3075 255.088 34.7506 255.951 34.7506H277.865C279.23 34.7506 280.176 36.115 279.731 37.3959L248.739 124.913C248.461 125.692 247.709 126.222 246.874 126.222H218.555C217.72 126.222 216.968 125.692 216.69 124.913L185.698 37.3959C185.253 36.115 186.199 34.7506 187.564 34.7506H210.397H210.425ZM448.332 52.1538C433.686 52.1538 424.72 62.7627 424.72 80.5C424.72 98.2373 433.686 108.846 448.332 108.846C462.979 108.846 471.945 98.2373 471.945 80.5C471.945 62.7627 462.979 52.1538 448.332 52.1538ZM556.427 51.04C545.818 51.04 538.578 57.1102 535.571 68.0811C535.237 69.2785 536.184 70.4479 537.437 70.4479H573.941C575.139 70.4479 576.058 69.4177 575.835 68.2482C573.858 57.3329 567.231 51.0678 556.399 51.0678L556.427 51.04Z" fill="black"/>
</g>
<defs>
<clipPath id="clip0_411_150">
<rect width="602.26" height="161" fill="white"/>
</clipPath>
</defs>
</svg>
