<?xml version="1.0" encoding="utf-8"?>
<!-- Generator: Adobe Illustrator 28.5.0, SVG Export Plug-In . SVG Version: 9.03 Build 54727)  -->
<svg version="1.1" id="Layer_1" xmlns="http://www.w3.org/2000/svg" xmlns:xlink="http://www.w3.org/1999/xlink" x="0px" y="0px"
	 viewBox="0 0 60 60" enable-background="new 0 0 60 60" xml:space="preserve">
<path fill="none" stroke="#141E12" d="M30.294399,54.167702c-0.1752,0.127296-0.4126,0.127296-0.5879,0L4.55322,35.894299
	c-0.16498-0.1199-0.23997-0.328499-0.19043-0.526398L11.7466,5.87866c0.0557-0.22238,0.2551-0.37875,0.4844-0.3789h35.538002
	c0.229298,0.00009,0.428699,0.15647,0.484398,0.3789l7.383801,29.489241c0.049599,0.197899-0.025398,0.406498-0.190399,0.526398
	L30.294399,54.167702z"/>
<path fill="none" stroke="#141E12" d="M30.293501,49.498001c-0.175301,0.1273-0.411701,0.1273-0.587002,0L9.00439,34.458
	c-0.164909-0.1199-0.23995-0.328499-0.19043-0.526402L14.8872,9.6748C14.943,9.45246,15.1433,9.29687,15.3726,9.29687
	l29.254799,0.00001c0.229301,0,0.4296,0.15557,0.485401,0.37792l6.0732,24.256798
	C51.2356,34.129398,51.1605,34.3381,50.995602,34.458L30.293501,49.498001z"/>
<path fill="#141E12" d="M30,8.79663L30,8.79663c0.276142,0,0.5,0.223858,0.5,0.5v7.000001c0,0.276142-0.223858,0.5-0.5,0.5l0,0
	c-0.276142,0-0.5-0.223858-0.5-0.5V9.29663C29.5,9.020488,29.723858,8.79663,30,8.79663z"/>
<path fill="#141E12" d="M19.1761,31.526899c-0.633299,0-1.190001-0.146599-1.67-0.439999
	c-0.48-0.300001-0.8533-0.726601-1.119999-1.280001c-0.266602-0.553301-0.400001-1.213301-0.400001-1.98
	c0-0.7666,0.133399-1.426601,0.400001-1.98C16.6528,25.2869,17.0261,24.856899,17.5061,24.5569s1.036701-0.450001,1.67-0.450001
	c0.860001,0,1.526701,0.216702,2,0.650002c0.4734,0.433399,0.7834,1.023399,0.93,1.769999l-0.91,0.060001
	c-0.1-0.506601-0.313301-0.906601-0.639999-1.200001c-0.326601-0.293301-0.7866-0.440001-1.380001-0.440001
	c-0.4533,0-0.8533,0.116701-1.199999,0.35c-0.34,0.2267-0.606602,0.5567-0.800001,0.99
	C16.9828,26.7136,16.886101,27.2269,16.886101,27.8269s0.096699,1.1134,0.289999,1.539999
	c0.193399,0.426701,0.460001,0.753401,0.800001,0.980001c0.346699,0.2267,0.746698,0.339998,1.199999,0.339998
	c0.620001,0,1.1-0.16,1.440001-0.48c0.34-0.326599,0.5534-0.7666,0.639999-1.32l0.91,0.059999
	c-0.086599,0.513401-0.256599,0.9634-0.51,1.35c-0.2533,0.3867-0.59,0.690001-1.01,0.91
	C20.2328,31.4203,19.7428,31.526899,19.1761,31.526899z M23.5135,31.366899l2.559999-7.1h1.16l2.560001,7.1H28.8535
	l-0.710001-2.019999h-2.98l-0.709999,2.019999H23.5135z M25.453501,28.506901h2.4L26.6535,25.016899L25.453501,28.506901z
	 M34.0504,31.526899c-0.5466,0-1.0233-0.1033-1.43-0.309999c-0.406601-0.2066-0.73-0.49-0.969999-0.85
	c-0.233299-0.3666-0.370001-0.789999-0.41-1.269999l0.9-0.060001c0.0467,0.353401,0.150002,0.6534,0.310001,0.9
	c0.16,0.2467,0.373398,0.433401,0.639999,0.560001c0.273399,0.126699,0.599998,0.189999,0.98,0.189999
	c0.333401,0,0.616699-0.043299,0.849998-0.129999c0.233402-0.086599,0.41-0.213301,0.530003-0.379999
	C35.577099,30.0103,35.6404,29.8069,35.6404,29.5669c0-0.219999-0.053299-0.4133-0.16-0.58
	c-0.099998-0.1733-0.2966-0.33-0.59-0.470001c-0.286598-0.146599-0.713299-0.289999-1.279999-0.429998
	c-0.5466-0.140001-0.983299-0.293301-1.310001-0.460001c-0.32-0.166599-0.553299-0.369999-0.699999-0.610001
	c-0.140001-0.24-0.210001-0.536598-0.210001-0.889999c0-0.4,0.093401-0.75,0.280001-1.049999
	c0.193399-0.306601,0.4667-0.543301,0.819998-0.710001c0.353401-0.1733,0.773403-0.26,1.260002-0.26
	c0.52,0,0.966698,0.1,1.34,0.300001c0.373398,0.193399,0.669998,0.459999,0.889999,0.799999s0.356701,0.7267,0.41,1.16
	l-0.900002,0.060001c-0.039997-0.2866-0.133297-0.540001-0.279999-0.76C35.0704,25.4403,34.877102,25.263599,34.630402,25.1369
	c-0.246601-0.1266-0.5466-0.190001-0.900002-0.190001c-0.439999,0-0.790001,0.106701-1.049999,0.32
	c-0.260002,0.206701-0.389999,0.480001-0.389999,0.820002c0,0.219999,0.049999,0.403399,0.149998,0.549999
	c0.106701,0.139999,0.2934,0.266701,0.560001,0.379999c0.266701,0.106701,0.649998,0.2234,1.149998,0.35
	c0.593403,0.1467,1.0634,0.3234,1.41,0.530001c0.353401,0.200001,0.603401,0.433399,0.75,0.700001
	c0.1534,0.266699,0.230003,0.57,0.230003,0.91c0,0.413399-0.106602,0.773399-0.32,1.08
	c-0.213303,0.299999-0.506603,0.5334-0.880001,0.699999C34.967098,31.446899,34.537102,31.526899,34.0504,31.526899z
	 M37.9842,31.366899l2.560001-7.1h1.16l2.559998,7.1H43.3242l-0.709999-2.019999h-2.98l-0.710003,2.019999H37.9842z
	 M39.924198,28.506901H42.3242l-1.200001-3.490002L39.924198,28.506901z"/>
<path fill="#141E12" d="M30,41.327599L30,41.327599c0.276142,0,0.5,0.223858,0.5,0.5v7c0,0.276142-0.223858,0.5-0.5,0.5l0,0
	c-0.276142,0-0.5-0.223858-0.5-0.5v-7C29.5,41.551456,29.723858,41.327599,30,41.327599z"/>
</svg>
