<?xml version="1.0" encoding="utf-8"?>
<!-- Generator: Adobe Illustrator 28.5.0, SVG Export Plug-In . SVG Version: 9.03 Build 54727)  -->
<svg version="1.1" id="Layer_1" xmlns="http://www.w3.org/2000/svg" xmlns:xlink="http://www.w3.org/1999/xlink" x="0px" y="0px"
	 viewBox="0 0 60 60" enable-background="new 0 0 60 60" xml:space="preserve">
<rect x="10.5" y="6.5" fill="none" stroke="#141E12" width="39" height="47"/>
<path fill="none" stroke="#000000" stroke-linecap="round" d="M37.612999,33.953899l3.472099,3.064301
	c0.019501,0.019299,0.032101,0.044498,0.035801,0.071602l0.495399,5.054699c0.002003,0.028198-0.006298,0.056099-0.0233,0.078598
	c-0.016998,0.022503-0.041599,0.038101-0.069199,0.0438l-7.0364,1.338802c-0.013599,0.002598-0.0275,0.003899-0.041401,0.003899
	c-0.0186-0.000599-0.0368-0.005901-0.052998-0.015301C34.3769,43.584999,34.3633,43.5718,34.3535,43.555901L32.8601,41.1959
	c-0.225998-0.356998-0.559101-0.633301-0.951799-0.7892l-6.157301-2.445599c-0.017899-0.008102-0.0336-0.0205-0.045599-0.036102
	c-0.0119-0.015598-0.019901-0.034-0.023001-0.053398l-0.252199-2.0219c-0.051401-0.412201-0.2299-0.798203-0.510801-1.104401
	l-3.2414-3.533701c-0.0149-0.017799-0.0242-0.039598-0.026899-0.0627l-0.3354-2.535c-0.0536-0.4049-0.2299-0.783699-0.5051-1.0854
	l-2.396999-2.6278c-0.018501-0.0205-0.029001-0.046999-0.0298-0.0746v-8.324999c0-0.014801,0.002899-0.0294,0.008699-0.043001
	c0.005699-0.013599,0.014101-0.0259,0.0247-0.0362c0.0105-0.0103,0.0231-0.018299,0.0368-0.023701
	c0.0138-0.0054,0.0284-0.007898,0.0432-0.0075h9.25c0.014799-0.000399,0.0294,0.0021,0.0432,0.0075
	c0.0137,0.005402,0.026201,0.013401,0.0368,0.023701s0.019001,0.0226,0.0247,0.0362
	c0.005699,0.013601,0.008699,0.0282,0.008699,0.043001V24.2633c0,0.548,0.2248,1.071899,0.622,1.449499L29.0972,26.2971"/>
<rect x="31.3174" y="24.992399" fill="none" stroke="#141E12" width="8.875608" height="6.80295"/>
<path fill="none" stroke="#141E12" stroke-linecap="round" stroke-linejoin="round" d="M34.121101,28.5574l0.980297,0.980301
	l2.287502-2.2875"/>
<path fill="none" stroke="#141E12" d="M38.3437,25.1182v-2.235901c0-1.429499-1.158802-2.5884-2.588299-2.5884
	c-1.4296,0-2.588402,1.158901-2.588402,2.5884V25.1182"/>
</svg>
