<?xml version="1.0" encoding="utf-8"?>
<!-- Generator: Adobe Illustrator 28.5.0, SVG Export Plug-In . SVG Version: 9.03 Build 54727)  -->
<svg version="1.1" id="Layer_1" xmlns="http://www.w3.org/2000/svg" xmlns:xlink="http://www.w3.org/1999/xlink" x="0px" y="0px"
	 viewBox="0 0 60 60" enable-background="new 0 0 60 60" xml:space="preserve">
<path fill="none" stroke="#141E12" d="M53.749001,16.288099v27.4228L30,57.422897L6.25098,43.710899v-27.4228L30,2.576169
	L53.749001,16.288099z"/>
<g>
	<path fill="#141E12" d="M29.909,9.4694c0.0355-0.07827,0.1467-0.07827,0.1821,0l0.3678,0.8111
		c0.014601,0.0321,0.045,0.0542,0.08,0.0581L31.424,10.4378c0.0854,0.0095,0.119699,0.1152,0.056299,0.1732l-0.657801,0.6004
		c-0.025999,0.0238-0.0376,0.0595-0.0305,0.094l0.179199,0.8724c0.0173,0.0842-0.072701,0.1495-0.1474,0.1071l-0.7743-0.44
		c-0.030701-0.0175-0.068199-0.0175-0.098801,0l-0.774401,0.44c-0.074699,0.0424-0.1646-0.0229-0.147301-0.1071l0.179199-0.8724
		c0.007099-0.0345-0.004499-0.0702-0.0305-0.094l-0.657801-0.6004c-0.063499-0.058-0.0291-0.1637,0.056299-0.1732l0.885099-0.0992
		c0.035-0.0039,0.0653-0.026,0.079901-0.0581L29.909,9.4694z"/>
	<path fill="#141E12" d="M29.909,47.680504c0.0355-0.07827,0.1467-0.07827,0.1821,0l0.3678,0.8111
		c0.014601,0.032101,0.045,0.054203,0.08,0.058102L31.424,48.648907c0.0854,0.009499,0.119699,0.1152,0.056299,0.173199
		l-0.657801,0.600399c-0.025999,0.0238-0.0376,0.059502-0.0305,0.094002l0.179199,0.872398
		c0.0173,0.084202-0.072701,0.149502-0.1474,0.107101l-0.7743-0.440002c-0.030701-0.017498-0.068199-0.017498-0.098801,0
		l-0.774401,0.440002c-0.074699,0.0424-0.1646-0.0229-0.147301-0.107101l0.179199-0.872398
		c0.007099-0.0345-0.004499-0.070202-0.0305-0.094002l-0.657801-0.600399c-0.063499-0.057999-0.0291-0.1637,0.056299-0.173199
		l0.885099-0.099201c0.035-0.003899,0.0653-0.026001,0.079901-0.058102L29.909,47.680504z"/>
	<path fill="#141E12" d="M19.755541,12.55737c-0.008392-0.085533,0.087912-0.141133,0.157703-0.09105l0.724073,0.518534
		c0.028694,0.020499,0.066072,0.024439,0.098331,0.010316l0.81612-0.35664c0.078707-0.034472,0.161263,0.039917,0.135355,0.121846
		l-0.269472,0.848862c-0.010614,0.03361-0.002811,0.070328,0.020586,0.096657l0.591393,0.665921
		c0.057081,0.064269,0.011789,0.16582-0.074102,0.166451l-0.890564,0.006099c-0.035337,0.000196-0.067812,0.018945-0.085564,0.0494
		l-0.450651,0.768251c-0.043491,0.074069-0.153997,0.062469-0.181116-0.0191l-0.281008-0.84512
		c-0.011103-0.033428-0.038998-0.058546-0.073414-0.066156l-0.869873-0.191061
		c-0.083992-0.018479-0.107052-0.127218-0.037844-0.178145l0.716919-0.528461c0.02836-0.020877,0.043552-0.055166,0.040146-0.090266
		L19.755541,12.55737z"/>
	<path fill="#141E12" d="M12.506371,20.308361c-0.050034-0.069878,0.005567-0.166182,0.09105-0.157703l0.886333,0.087027
		c0.0351,0.003405,0.069439-0.011871,0.090316-0.040232l0.528461-0.716919c0.050927-0.069208,0.159616-0.046062,0.178145,0.037844
		l0.191061,0.869871c0.007611,0.034416,0.032728,0.062311,0.066156,0.073414l0.84512,0.28101
		c0.081569,0.027117,0.09312,0.137711,0.019051,0.181202l-0.768201,0.450563c-0.030505,0.017838-0.049254,0.050312-0.0494,0.085564
		l-0.006149,0.89065c-0.00063,0.085892-0.102132,0.131098-0.166401,0.074017l-0.665921-0.591391
		c-0.026329-0.023399-0.063046-0.031204-0.096657-0.020586l-0.848862,0.269472
		c-0.081979,0.025991-0.156319-0.056648-0.121846-0.135357l0.35664-0.816118c0.014123-0.032261,0.010134-0.069551-0.010365-0.098246
		L12.506371,20.308361z"/>
	<path fill="#141E12" d="M10.103903,30.6455c-0.07827-0.0355-0.07827-0.1467,0-0.1821l0.8111-0.3678
		c0.0321-0.014601,0.0542-0.045,0.0581-0.08l0.0992-0.885099c0.0095-0.0854,0.1152-0.119699,0.1732-0.056299l0.6004,0.657801
		c0.0238,0.025999,0.0595,0.0376,0.094,0.0305l0.8724-0.179199c0.0842-0.0173,0.1495,0.072701,0.1071,0.1474l-0.44,0.7743
		c-0.0175,0.030701-0.0175,0.068199,0,0.098801l0.44,0.774401c0.0424,0.074699-0.0229,0.1646-0.1071,0.147301l-0.8724-0.179199
		c-0.0345-0.007099-0.0702,0.004499-0.094,0.0305l-0.6004,0.657801c-0.058,0.063499-0.1637,0.029099-0.1732-0.056299
		l-0.0992-0.885099c-0.0039-0.035-0.026-0.0653-0.0581-0.079901L10.103903,30.6455z"/>
	<path fill="#141E12" d="M13.191873,40.798962c-0.085533,0.008389-0.141133-0.087914-0.09105-0.157707l0.518534-0.724072
		c0.020499-0.028694,0.024439-0.066071,0.010316-0.098331l-0.35664-0.81612c-0.034472-0.078709,0.039917-0.161263,0.121846-0.135357
		l0.848862,0.269474c0.03361,0.010616,0.070328,0.002811,0.096657-0.020588l0.665921-0.591389
		c0.064269-0.057083,0.16582-0.011791,0.166451,0.0741l0.006099,0.890564c0.000196,0.035336,0.018945,0.06781,0.0494,0.085564
		l0.768251,0.450649c0.074071,0.043491,0.062469,0.153999-0.0191,0.181118l-0.84512,0.28101
		c-0.033428,0.011101-0.058546,0.038994-0.066156,0.073414l-0.191061,0.869869
		c-0.018479,0.083992-0.127218,0.107052-0.178145,0.037846l-0.528461-0.716919
		c-0.020877-0.028362-0.055166-0.043552-0.090266-0.040146L13.191873,40.798962z"/>
	<path fill="#141E12" d="M20.942863,48.04813c-0.069878,0.050034-0.166182-0.005569-0.157703-0.091053l0.087027-0.886333
		c0.003405-0.035099-0.011871-0.069435-0.040232-0.090313l-0.716919-0.528461
		c-0.069208-0.050926-0.046062-0.159615,0.037844-0.178143l0.869871-0.191063c0.034416-0.00761,0.062311-0.03273,0.073414-0.066154
		l0.28101-0.845123c0.027117-0.081566,0.137711-0.093121,0.181202-0.019051l0.450563,0.7682
		c0.017838,0.030506,0.050312,0.049255,0.085564,0.0494l0.89065,0.006153c0.085892,0.000629,0.131098,0.102131,0.074017,0.166401
		l-0.591391,0.66592c-0.023399,0.026329-0.031204,0.063046-0.020586,0.096657l0.269472,0.848862
		c0.025991,0.081978-0.056648,0.156319-0.135357,0.121845l-0.816118-0.35664
		c-0.032261-0.014122-0.069551-0.010132-0.098246,0.010365L20.942863,48.04813z"/>
</g>
<path fill="#141E12" d="M40.157589,13.443707c-0.003407,0.0351,0.011784,0.069389,0.040146,0.090266l0.716919,0.52846
	c0.069206,0.050927,0.046146,0.159666-0.037846,0.178145l-0.869869,0.191061c-0.03442,0.00761-0.062313,0.032728-0.073414,0.066156
	l-0.28101,0.84512c-0.027119,0.081569-0.137627,0.093169-0.181118,0.0191l-0.450649-0.768251
	c-0.017754-0.030456-0.050228-0.049205-0.085564-0.0494l-0.890564-0.006099c-0.085892-0.00063-0.131184-0.102181-0.0741-0.166451
	l0.591389-0.665921c0.023399-0.026329,0.031204-0.063046,0.020588-0.096657l-0.269474-0.848862
	c-0.025906-0.081929,0.056648-0.156319,0.135357-0.121846l0.81612,0.35664c0.032261,0.014123,0.069637,0.010183,0.098331-0.010316
	l0.724072-0.518534c0.069794-0.050083,0.166096,0.005517,0.157703,0.09105L40.157589,13.443707z"/>
<path fill="#141E12" d="M46.975246,21.032442c-0.020496,0.028694-0.024487,0.065985-0.010365,0.098246l0.35664,0.816118
	c0.034473,0.078709-0.039867,0.161348-0.121845,0.135357l-0.848862-0.269472
	c-0.033611-0.010618-0.070328-0.002813-0.096657,0.020586l-0.66592,0.591391c-0.06427,0.057081-0.165771,0.011875-0.166405-0.074017
	l-0.006149-0.89065c-0.000145-0.035252-0.018894-0.067726-0.0494-0.085564l-0.7682-0.450563
	c-0.07407-0.043491-0.062519-0.154085,0.019051-0.181202l0.845123-0.28101c0.033424-0.011103,0.058544-0.038998,0.066154-0.073414
	l0.191063-0.869871c0.018528-0.083906,0.127216-0.107052,0.178143-0.037844l0.528461,0.716919
	c0.020878,0.02836,0.055214,0.043636,0.090313,0.040232l0.886333-0.087027c0.085484-0.008478,0.141087,0.087826,0.091053,0.157703
	L46.975246,21.032442z"/>
<path fill="#141E12" d="M49.085144,31.013308c-0.032097,0.014601-0.054199,0.044901-0.058098,0.079901l-0.099201,0.885099
	c-0.009499,0.085398-0.1152,0.119799-0.173199,0.056299l-0.600399-0.657801c-0.0238-0.026001-0.059502-0.0376-0.094002-0.0305
	l-0.872398,0.179199c-0.084202,0.0173-0.149502-0.072601-0.107101-0.147301l0.439999-0.774401
	c0.017502-0.030602,0.017502-0.0681,0-0.098801l-0.439999-0.7743c-0.0424-0.074699,0.0229-0.1647,0.107101-0.1474l0.872398,0.179199
	c0.0345,0.007099,0.070202-0.004501,0.094002-0.0305l0.600399-0.657801c0.057999-0.0634,0.1637-0.0291,0.173199,0.056299
	l0.099201,0.885099c0.003899,0.035,0.026001,0.065399,0.058098,0.08l0.8111,0.3678c0.07827,0.0354,0.07827,0.146601,0,0.1821
	L49.085144,31.013308z"/>
<path fill="#141E12" d="M45.92194,40.711941c-0.035099-0.003407-0.069389,0.011784-0.090267,0.040146l-0.528461,0.716919
	c-0.050926,0.069206-0.159664,0.046146-0.178143-0.037846l-0.191063-0.869869c-0.00761-0.03442-0.032726-0.062313-0.066154-0.073414
	l-0.845119-0.28101c-0.08157-0.027119-0.09317-0.137627-0.019104-0.181118l0.768253-0.450649
	c0.030457-0.017754,0.049206-0.050228,0.0494-0.085564l0.0061-0.890564c0.000629-0.085892,0.10218-0.131184,0.166451-0.0741
	l0.66592,0.591389c0.026329,0.023399,0.063046,0.031204,0.096657,0.020588l0.848862-0.269474
	c0.081928-0.025906,0.156319,0.056648,0.121845,0.135357l-0.35664,0.81612c-0.014122,0.032261-0.010181,0.069637,0.010315,0.098331
	l0.518536,0.724072c0.050083,0.069794-0.005516,0.166096-0.091049,0.157707L45.92194,40.711941z"/>
<path fill="#141E12" d="M38.333206,47.529598c-0.028694-0.020496-0.065987-0.024487-0.098248-0.010365l-0.81612,0.35664
	c-0.078705,0.034473-0.161346-0.039867-0.135353-0.121845l0.26947-0.848862c0.010616-0.033611,0.002811-0.070328-0.020584-0.096657
	l-0.591393-0.66592c-0.057083-0.06427-0.011875-0.165771,0.074017-0.166401l0.890652-0.006153
	c0.035252-0.000145,0.067726-0.018894,0.085564-0.0494l0.450562-0.7682c0.043491-0.07407,0.154083-0.062515,0.181202,0.019051
	l0.28101,0.845123c0.011101,0.033424,0.038998,0.058544,0.073414,0.066154l0.869873,0.191063
	c0.083904,0.018528,0.107052,0.127216,0.037842,0.178143l-0.716919,0.528461c-0.028358,0.020878-0.043636,0.055214-0.04023,0.090313
	l0.087025,0.886333c0.008476,0.085484-0.087826,0.141087-0.157703,0.091053L38.333206,47.529598z"/>
<path fill="#141E12" d="M17.150499,33.5v-7.1H19.3505c1.0933,0,1.9333,0.309999,2.52,0.93
	c0.5933,0.6133,0.889999,1.49,0.889999,2.629999c0,1.133301-0.289999,2.006701-0.870001,2.620003
	c-0.58,0.613297-1.406698,0.919998-2.48,0.919998H17.150499z M18.0105,32.66h1.34c0.8333,0,1.459999-0.223301,1.879999-0.67
	c0.42-0.4533,0.630001-1.129999,0.630001-2.030001c0-0.9133-0.210001-1.5933-0.630001-2.039999
	c-0.42-0.4533-1.0467-0.68-1.879999-0.68h-1.34V32.66z M26.902901,33.66c-0.6733,0-1.253302-0.146698-1.74-0.439999
	c-0.480001-0.300003-0.85-0.7267-1.110001-1.280001s-0.389999-1.213301-0.389999-1.980001
	c0-0.766699,0.129999-1.426699,0.389999-1.98c0.26-0.559999,0.629999-0.99,1.110001-1.289999
	c0.486698-0.300001,1.0667-0.450001,1.74-0.450001c0.679998,0,1.26,0.15,1.74,0.450001
	c0.4867,0.299999,0.859999,0.73,1.119999,1.289999c0.26,0.553301,0.390001,1.213301,0.390001,1.98
	c0,0.766701-0.130001,1.426701-0.390001,1.980001s-0.633299,0.979998-1.119999,1.280001
	C28.162901,33.513302,27.582899,33.66,26.902901,33.66z M26.902901,32.82c0.493299,0,0.9133-0.1133,1.26-0.34
	c0.353298-0.2267,0.623299-0.553299,0.809999-0.98c0.186699-0.426701,0.279999-0.940001,0.279999-1.540001
	c0-0.599998-0.0933-1.113298-0.279999-1.539999c-0.186701-0.4333-0.456701-0.7633-0.809999-0.99
	c-0.346701-0.233301-0.766701-0.35-1.26-0.35c-0.4867,0-0.9067,0.116699-1.26,0.35c-0.346701,0.2267-0.6133,0.5567-0.800001,0.99
	c-0.186699,0.426701-0.279999,0.940001-0.279999,1.539999c0,0.6,0.0933,1.1133,0.279999,1.540001
	c0.186701,0.426701,0.4533,0.7533,0.800001,0.98C25.996201,32.706699,26.416201,32.82,26.902901,32.82z M31.3888,33.5v-7.1H34.0788
	c0.5,0,0.93,0.0867,1.290001,0.26s0.6366,0.4233,0.829998,0.75c0.200001,0.32,0.299999,0.700001,0.299999,1.139999
	c0,0.320002-0.076698,0.606701-0.23,0.860001c-0.146698,0.2467-0.3367,0.4433-0.57,0.59c-0.233398,0.1467-0.4767,0.2267-0.73,0.24
	l-0.060001-0.09c0.4333,0,0.7733,0.1,1.02,0.300001C36.182098,30.65,36.3288,30.969999,36.368801,31.41l0.200001,2.09h-0.870003
	l-0.180099-2c-0.0266-0.293301-0.133301-0.51-0.319901-0.65c-0.18-0.140001-0.4767-0.210001-0.889999-0.210001h-2.060001V33.5
	H31.3888z M32.248798,29.799999h1.940002c0.4333,0,0.7766-0.109999,1.029999-0.33
	c0.2533-0.219999,0.380001-0.533298,0.380001-0.939999c0-0.413301-0.130001-0.730001-0.389999-0.950001
	c-0.260002-0.2267-0.6367-0.34-1.130001-0.34h-1.830002V29.799999z M37.289799,33.5l2.560001-7.1h1.16l2.560001,7.1h-0.940002
	L41.9198,31.48h-2.98l-0.709999,2.02H37.289799z M39.229801,30.639999h2.399998l-1.200001-3.49L39.229801,30.639999z"/>
</svg>
