<?xml version="1.0" encoding="utf-8"?>
<!-- Generator: Adobe Illustrator 28.5.0, SVG Export Plug-In . SVG Version: 9.03 Build 54727)  -->
<svg version="1.1" id="Layer_1" xmlns="http://www.w3.org/2000/svg" xmlns:xlink="http://www.w3.org/1999/xlink" x="0px" y="0px"
	 viewBox="0 0 60 60" enable-background="new 0 0 60 60" xml:space="preserve">
<circle fill="none" stroke="#141E12" cx="30" cy="30" r="27.5"/>
<path fill="none" stroke="#141E12" stroke-linecap="round" d="M6,30c0,9.285099,5.2727,17.338699,12.987301,21.3298 M30,6
	c-7.1101,0-13.497999,3.0918-17.8927,8.0043"/>
<path fill="none" stroke="#141E12" stroke-linecap="round" d="M53.494099,30c0,9.285099-5.272697,17.338699-12.987297,21.3298
	 M29.494101,6c7.110098,0,13.497999,3.0918,17.892698,8.0043"/>
<circle fill="none" stroke="#090909" cx="30" cy="16.378401" r="3"/>
<path fill="#090909" d="M29.994101,21.7288L29.994101,21.7288c0.276142,0,0.5,0.223858,0.5,0.5v30.169203
	c0,0.276142-0.223858,0.5-0.5,0.5l0,0c-0.276142,0-0.5-0.223858-0.5-0.5V22.2288
	C29.494101,21.952658,29.717958,21.7288,29.994101,21.7288z"/>
<path fill="none" stroke="#000000" stroke-linecap="round" stroke-linejoin="round" d="M29.8696,25.396
	c-6.1423,0.2393-5.6989-9.0175-11.4363-9.017599c-3.2858,0-5.1936,4.928598-10.33418,4.928598
	c0.37099,3.179701,8.61708,9.9102,13.61988,9.4862"/>
<path d="M19.1661,20.778601c0.180901-0.2087,0.1583-0.524401-0.0504-0.705301c-0.2087-0.180799-0.524401-0.158298-0.705299,0.0504
	L18.7883,20.4512L19.1661,20.778601z M19.8967,24.029699c0.180901-0.2087,0.1583-0.524399-0.0504-0.705299
	c-0.2087-0.180799-0.5245-0.1583-0.705299,0.0504l0.377899,0.327499L19.8967,24.029699z M21.509701,27.1513
	c0.1497-0.232,0.082998-0.5415-0.149-0.6912c-0.232101-0.1497-0.541601-0.082901-0.691301,0.149099l0.4202,0.271101
	L21.509701,27.1513z M10.752,25.0903l0.1518,0.4764c1.2831-0.4088,2.9679-1.1737,4.5087-2.040501
	c1.5282-0.859699,2.9813-1.8564,3.753599-2.747599l-0.3778-0.3274L18.4104,20.123699
	c-0.6523,0.752701-1.975401,1.679901-3.4882,2.530901c-1.5002,0.844-3.1213,1.5767-4.322001,1.959299L10.752,25.0903z
	 M13.1263,27.5012l0.1518,0.4764c2.5311-0.806499,5.110999-2.2082,6.6186-3.947901l-0.3778-0.3274L19.141001,23.3748
	c-1.3416,1.5481-3.729701,2.8736-6.166501,3.65L13.1263,27.5012z M16.4139,29.5103l0.1917,0.4618
	c0.946699-0.393,1.964899-0.780199,2.820799-1.205799c0.8477-0.4216,1.640001-0.927801,2.083302-1.615l-0.420101-0.271
	l-0.4202-0.271101c-0.287199,0.445301-0.864698,0.8522-1.6882,1.2617c-0.8153,0.405401-1.769699,0.767-2.758999,1.177601
	L16.4139,29.5103z"/>
<path fill="none" stroke="#000000" stroke-linecap="round" stroke-linejoin="round" d="M30,25.396
	c6.1423,0.2393,5.698898-9.0175,11.436401-9.017599c3.285698,0,5.193501,4.928598,10.334099,4.928598
	c-0.370998,3.179701-8.6171,9.9102-13.6199,9.4862"/>
<path d="M40.703499,20.778601c-0.180798-0.2087-0.158298-0.524401,0.0504-0.705301
	c0.208702-0.180799,0.524502-0.158298,0.705303,0.0504l-0.3778,0.327501L40.703499,20.778601z M39.9729,24.029699
	c-0.180801-0.2087-0.158298-0.524399,0.0504-0.705299c0.208698-0.180799,0.524498-0.1583,0.705299,0.0504l-0.3778,0.327499
	L39.9729,24.029699z M38.359901,27.1513c-0.1497-0.232-0.083-0.5415,0.149097-0.6912
	c0.232002-0.1497,0.5415-0.082901,0.6912,0.149099l-0.4202,0.271101L38.359901,27.1513z M49.117699,25.0903L48.9659,25.5667
	c-1.283199-0.4088-2.967899-1.1737-4.508801-2.040501c-1.528198-0.859699-2.9813-1.8564-3.753601-2.747599l0.377903-0.3274
	l0.3778-0.327501C42.1115,20.8764,43.434601,21.8036,44.947399,22.6546c1.500202,0.844,3.1213,1.5767,4.322102,1.959299
	L49.117699,25.0903z M46.743301,27.5012l-0.151802,0.4764c-2.531101-0.806499-5.110901-2.2082-6.618599-3.947901l0.377899-0.3274
	l0.3778-0.327499c1.341602,1.5481,3.729702,2.8736,6.1665,3.65L46.743301,27.5012z M43.4557,29.5103l-0.1917,0.4618
	c-0.946701-0.393-1.964901-0.780199-2.820801-1.205799c-0.847698-0.4216-1.639999-0.927801-2.083298-1.615l0.420097-0.271
	l0.4202-0.271101c0.287201,0.445301,0.864799,0.8522,1.688301,1.2617c0.815201,0.405401,1.7696,0.767,2.7589,1.177601
	L43.4557,29.5103z"/>
<path fill="#090909" d="M34.197399,46.775902c-0.000797-0.131702-0.054298-0.258102-0.147999-0.351303
	c-0.0938-0.093098-0.2202-0.1455-0.352001-0.1455c-0.131699,0-0.258198,0.052402-0.351898,0.1455
	c-0.0938,0.093201-0.147202,0.219601-0.148102,0.351303c0.000301,0.455898-0.2724,0.901798-0.6889,1.233299
	c-0.667799,0.5322-1.605099,0.779598-2.514198,0.772598c-1.438002,0.028-3.154701-0.8218-3.140301-2.005898
	c-0.0121-1.132301,1.730101-1.791801,3.140301-1.749702c1.8137-0.007599,4.115398-0.925598,4.3284-3.325001
	c0.020901-0.584999-0.300602-1.197899-0.677002-1.547199c-0.374699-0.364498-0.770897-0.595699-1.1507-0.808701
	c-0.762798-0.416-1.4963-0.745998-2.172298-1.145298l-0.0648-0.032803c-1.5065-0.681698-2.9839-1.524197-4.1761-2.588398
	c-1.2145-1.066799-1.9025-2.4333-0.869801-3.4286c0.232599-0.243099,0.7631-0.3459,1.137001-0.5376
	C26.451,31.5599,26.545,31.4981,26.6243,31.421499c0.376101-0.3638,0.640499-0.843699,0.794399-1.452099
	c0.0371-0.1586,0.063002-0.320601,0.0476-0.4753C27.4508,29.3393,27.394199,29.2034,27.2957,29.1029
	c-0.098499-0.100599-0.233101-0.160099-0.3876-0.178799c-0.154301-0.018702-0.316801,0.003799-0.476101,0.0376
	c-0.597198,0.1236-1.0933,0.370899-1.472099,0.7372c-0.0802,0.0774-0.146,0.1703-0.2031,0.271799
	c-0.2195,0.3878-0.291201,0.855701-0.625,1.214901c-0.7045,0.718399-1.101,2.0606-0.691099,3.0849
	c0.3631,1.018501,1.0411,1.725399,1.7215,2.3377C26.5539,37.812401,28.1117,38.659,29.7307,39.370399l-0.0648-0.0327
	c1.399101,0.8326,3.4624,1.4398,3.406202,2.363499c0.004898,1.166302-1.645401,2.171101-3.077801,2.1385
	c-0.8771,0.008102-1.769402,0.157402-2.603802,0.571602C26.5825,44.7976,25.707001,45.6525,25.7285,46.775902
	c0.207699,2.368397,2.573599,3.062199,4.2658,3.068897c1.104799-0.011398,2.242199-0.298599,3.162098-1.042198
	C33.722698,48.344002,34.207802,47.611,34.197399,46.775902z"/>
<path fill="#090909" d="M25.792801,46.776199c0.000898-0.131798,0.054298-0.258099,0.1481-0.351299
	c0.093699-0.093201,0.2202-0.1455,0.3519-0.1455c0.1318,0,0.2582,0.052299,0.351999,0.1455
	c0.0937,0.093201,0.1472,0.219501,0.148001,0.351299c-0.000301,0.455902,0.2724,0.901699,0.688999,1.2332
	c0.6677,0.5322,1.605101,0.779602,2.514099,0.772602c1.438002,0.028,3.1548-0.821701,3.1404-2.005802
	c0.012001-1.132298-1.730099-1.791901-3.1404-1.749798c-1.8137-0.0075-4.115398-0.925602-4.328299-3.325001
	c-0.021-0.5849,0.3006-1.197899,0.676899-1.5471c0.374701-0.364601,0.771-0.595699,1.150801-0.808701
	c0.762699-0.4161,1.496201-0.745998,2.172199-1.145401l0.0648-0.032799c1.506599-0.681599,2.984001-1.524101,4.176102-2.588299
	c1.214497-1.066803,1.9025-2.433403,0.869797-3.4286c-0.232597-0.2432-0.762997-0.346001-1.136997-0.537601
	c-0.102001-0.052799-0.1959-0.1145-0.275303-0.1912c-0.375999-0.363699-0.640499-0.843599-0.794399-1.452099
	c-0.037098-0.1586-0.063-0.320601-0.0476-0.475201c0.015499-0.1548,0.072102-0.290701,0.170601-0.3913s0.2332-0.16,0.3876-0.178801
	c0.154301-0.018599,0.316799,0.003901,0.4762,0.037701c0.597198,0.123501,1.0933,0.3708,1.472099,0.7372
	c0.080101,0.0774,0.145901,0.1702,0.202999,0.2717c0.219501,0.387901,0.291302,0.855801,0.625103,1.214901
	C36.563,31.9042,36.959499,33.246399,36.5495,34.270699c-0.363098,1.018501-1.041,1.725403-1.7215,2.3377
	c-1.391598,1.2043-2.949499,2.0508-4.568499,2.762302l0.0648-0.032803c-1.399101,0.832703-3.4624,1.4398-3.4062,2.363503
	c-0.004801,1.166298,1.645399,2.1712,3.077799,2.1385c0.8771,0.008198,1.769501,0.157497,2.603901,0.571598
	c0.807899,0.386299,1.683399,1.241199,1.6619,2.3647c-0.207699,2.368401-2.5735,3.062099-4.2658,3.068802
	c-1.1047-0.011402-2.242199-0.2985-3.1621-1.042202C26.2675,48.344299,25.782499,47.611198,25.792801,46.776199z"/>
</svg>
