<?xml version="1.0" encoding="utf-8"?>
<!-- Generator: Adobe Illustrator 28.5.0, SVG Export Plug-In . SVG Version: 9.03 Build 54727)  -->
<svg version="1.1" id="Layer_1" xmlns="http://www.w3.org/2000/svg" xmlns:xlink="http://www.w3.org/1999/xlink" x="0px" y="0px"
	 viewBox="0 0 60 60" enable-background="new 0 0 60 60" xml:space="preserve">
<path fill="#141E12" d="M30,2c15.464001,0,28,12.536,28,28c0,15.296902-12.266701,27.726398-27.5,27.993198V58h-1v-0.006802
	C14.2667,57.726398,2,45.296902,2,30C2,14.536,14.536,2,30,2z M30.5,19h-1V3.02148c-3.155199,0.25567-6.2307,2.92246-8.6094,7.63082
	C19.6922,13.0247,18.707899,15.8514,18.0117,19h-1.0224c1.517601-7.0244,4.4443-12.57117,8.077101-15.24805
	C16.1075,6.51958,9.20285,16.6488,8.91211,29.1768H11v1H8.9043c0.063661,12.824699,7.0498,23.2551,16.162102,26.070301
	C21.2631,53.444302,18.235001,47.495998,16.7861,40h1.017599c0.701601,3.5513,1.762901,6.726898,3.086901,9.347698
	c2.3787,4.708302,5.454201,7.374104,8.6094,7.629803V40h1v16.977501c3.1553-0.2556,6.231701-2.921501,8.610401-7.629803
	C40.434299,46.726898,41.4949,43.551201,42.196301,40h1.017601c-1.448902,7.496101-4.477001,13.444302-8.2803,16.247101
	c9.112198-2.815399,16.0994-13.245899,16.163097-26.070301H49v-1h2.087898C50.7971,16.649099,43.8923,6.51979,34.933601,3.75195
	C38.566399,6.42882,41.493099,11.9756,43.0107,19h-1.0224c-0.695999-3.1486-1.679501-5.9754-2.877899-8.3477
	C36.731701,5.94392,33.6553,3.27713,30.5,3.02148V19z M3.00195,30.1768C3.07554,41.655201,10.3111,51.431702,20.4648,55.265598
	C13.0733,50.7789,7.95827,41.238899,7.9043,30.1768H3.00195z M52.091801,30.7227
	c-0.216499,10.8304-5.2887,20.130701-12.559601,24.542898C49.687302,51.4324,56.9244,41.656101,56.998001,30.1768h-4.901302
	L52.091801,30.7227z M20.4648,4.7334C10.5021,8.49507,3.34904,17.9786,3.01367,29.1768h4.89844
	C8.15792,18.3901,13.2175,9.13233,20.4648,4.7334z M39.535198,4.73438c7.247101,4.39911,12.3069,13.656119,12.5527,24.442421
	h4.898403C56.651001,17.978701,49.4977,8.49613,39.535198,4.73438z"/>
<path fill="#141E12" d="M17.0502,37.719501c0-0.5,0.0767-0.950001,0.23-1.350002c0.160002-0.4067,0.436701-0.7934,0.830002-1.16
	c0.4-0.366699,0.953299-0.736698,1.66-1.110001c0.3267-0.173397,0.59-0.333397,0.789999-0.48
	c0.200001-0.146698,0.346701-0.303398,0.440001-0.469997c0.0933-0.166702,0.139999-0.370003,0.139999-0.610001
	c0-0.2467-0.053299-0.460003-0.16-0.640001c-0.106699-0.186701-0.266701-0.333401-0.48-0.440001
	c-0.206699-0.106699-0.4667-0.16-0.780001-0.16c-0.5,0-0.8967,0.130001-1.190001,0.390001
	C18.2435,31.949499,18.063499,32.3195,17.9902,32.7995l-0.9-0.060001c0.08-0.693398,0.346699-1.246698,0.799999-1.659998
	c0.4533-0.413401,1.063301-0.620001,1.83-0.620001c0.4867,0,0.903301,0.086601,1.25,0.26
	c0.346701,0.1733,0.610001,0.416601,0.790001,0.73c0.186699,0.306601,0.279999,0.663301,0.279999,1.070002
	c0,0.360001-0.059999,0.673298-0.179998,0.939999c-0.120001,0.260002-0.323301,0.5033-0.610001,0.73
	c-0.280001,0.226601-0.6667,0.470001-1.16,0.73c-0.640001,0.34-1.126701,0.6833-1.460001,1.030003
	c-0.3267,0.3466-0.5,0.656597-0.519999,0.93h3.929998v0.84H17.0502z M24.275101,37.719501
	c0-0.733402,0.099998-1.463402,0.299999-2.190002c0.200001-0.733398,0.4867-1.443398,0.860001-2.129997
	c0.379999-0.686703,0.833399-1.333401,1.359999-1.940002h-4.099998v-0.84H27.7351V31.3995
	c-0.5933,0.679998-1.0833,1.3533-1.469999,2.019999c-0.380001,0.66-0.66,1.3433-0.84,2.050003
	c-0.18,0.699997-0.27,1.449997-0.27,2.25H24.275101z M29.7146,37.719501c0-0.733402,0.1-1.463402,0.300001-2.190002
	c0.199999-0.733398,0.486599-1.443398,0.859999-2.129997c0.380001-0.686703,0.8333-1.333401,1.360001-1.940002h-4.1v-0.84h5.039999
	V31.3995c-0.593399,0.679998-1.083397,1.3533-1.469999,2.019999c-0.379999,0.66-0.66,1.3433-0.84,2.050003
	c-0.179998,0.699997-0.269999,1.449997-0.269999,2.25H29.7146z M36.391102,37.879501
	c-0.573402,0-1.070004-0.150002-1.490002-0.450001c-0.420002-0.299999-0.7467-0.7267-0.98-1.279999
	c-0.2267-0.553402-0.34-1.210003-0.34-1.970001c0-0.760002,0.1133-1.416702,0.34-1.970001
	c0.233299-0.559999,0.559998-0.99,0.98-1.289999c0.419998-0.3067,0.916599-0.460001,1.490002-0.460001
	c0.579998,0,1.079998,0.153301,1.5,0.460001c0.419998,0.299999,0.743298,0.726599,0.969997,1.280001
	c0.233299,0.553299,0.350002,1.213299,0.350002,1.98c0,0.759998-0.116703,1.416599-0.350002,1.970001
	c-0.2267,0.553299-0.549999,0.98-0.969997,1.279999C37.4711,37.7295,36.9711,37.879501,36.391102,37.879501z M36.391102,37.039501
	c0.613297,0,1.086597-0.2467,1.419998-0.740002c0.333302-0.5,0.5-1.206699,0.5-2.119999c0-0.6134-0.076698-1.1334-0.23-1.560001
	c-0.146702-0.433399-0.3634-0.759998-0.650002-0.98c-0.279999-0.2267-0.626698-0.34-1.039997-0.34
	c-0.4067,0-0.753403,0.1133-1.040001,0.34c-0.280003,0.220001-0.4967,0.5466-0.650002,0.98
	c-0.146698,0.426601-0.220001,0.946602-0.220001,1.560001c0,0.9133,0.166603,1.619999,0.5,2.119999
	C35.3144,36.792801,35.784401,37.039501,36.391102,37.039501z M41.5919,37.719501v-5.260002h-1.48v-0.74h0.599998
	c0.260002,0,0.466702-0.0334,0.620003-0.1c0.16-0.0667,0.2733-0.179998,0.34-0.34c0.0667-0.16,0.099998-0.379999,0.099998-0.66h0.68
	v7.100002H41.5919z"/>
<path fill="#141E12" d="M22.746201,28.2803v-7.1h0.859999v7.1H22.746201z M27.744801,28.4403
	c-0.546701,0-1.023401-0.103399-1.43-0.309999c-0.4067-0.206701-0.73-0.49-0.969999-0.85
	c-0.2334-0.366699-0.370001-0.790001-0.410002-1.27l0.900002-0.059999c0.046598,0.3533,0.15,0.653299,0.309999,0.9
	c0.16,0.246601,0.373301,0.4333,0.639999,0.559999c0.2733,0.1266,0.6,0.190001,0.98,0.190001
	c0.333302,0,0.6166-0.0434,0.85-0.129999c0.233301-0.0867,0.41-0.2134,0.530001-0.380001
	c0.1266-0.1667,0.190001-0.369999,0.190001-0.609999c0-0.220001-0.0534-0.413401-0.16-0.580002
	c-0.1-0.173399-0.296701-0.33-0.59-0.469999c-0.286701-0.1467-0.7134-0.289999-1.280001-0.43
	c-0.5467-0.139999-0.9834-0.2934-1.309999-0.459999c-0.32-0.1667-0.5534-0.370001-0.700001-0.610001
	c-0.139999-0.24-0.209999-0.536699-0.209999-0.889999c0-0.4,0.0933-0.75,0.279999-1.050001
	c0.1933-0.3067,0.4666-0.5434,0.82-0.709999c0.3533-0.173401,0.7733-0.26,1.26-0.26c0.52,0,0.9666,0.1,1.34,0.299999
	c0.373301,0.1933,0.67,0.460001,0.890001,0.800001c0.219999,0.34,0.3566,0.726601,0.41,1.16L29.184799,23.3403
	c-0.039999-0.286699-0.1334-0.539999-0.279999-0.76c-0.140001-0.2267-0.333401-0.403399-0.58-0.529999
	c-0.2467-0.126701-0.546701-0.190001-0.9-0.190001c-0.440001,0-0.790001,0.1066-1.050001,0.32
	c-0.26,0.2066-0.389999,0.48-0.389999,0.82c0,0.220001,0.049999,0.403301,0.15,0.550001
	c0.1066,0.139999,0.293301,0.2666,0.559999,0.379999c0.2666,0.1066,0.650002,0.223301,1.150002,0.35
	c0.5933,0.146601,1.063299,0.323299,1.41,0.530001c0.3533,0.199999,0.6033,0.4333,0.75,0.699999
	c0.153299,0.2666,0.23,0.57,0.23,0.91c0,0.4133-0.106701,0.7733-0.32,1.08c-0.2134,0.300001-0.506701,0.5333-0.880001,0.700001
	C28.6614,28.3603,28.2314,28.4403,27.744801,28.4403z M34.471298,28.4403c-0.673397,0-1.253399-0.1467-1.739998-0.440001
	c-0.48-0.299999-0.85-0.7267-1.110001-1.279999c-0.26-0.5534-0.389999-1.2134-0.389999-1.980001
	c0-0.766699,0.129999-1.426699,0.389999-1.98c0.26-0.559999,0.630001-0.99,1.110001-1.289999
	c0.486599-0.300001,1.066601-0.450001,1.739998-0.450001c0.68,0,1.260002,0.15,1.740002,0.450001
	c0.486599,0.299999,0.860001,0.73,1.119999,1.289999c0.260002,0.553301,0.389999,1.213301,0.389999,1.98
	c0,0.766602-0.129997,1.426601-0.389999,1.980001c-0.259998,0.553299-0.6334,0.98-1.119999,1.279999
	C35.7313,28.2936,35.151299,28.4403,34.471298,28.4403z M34.471298,27.6003c0.493301,0,0.913303-0.1134,1.260002-0.34
	c0.353298-0.2267,0.623299-0.5534,0.810001-0.98c0.1866-0.426701,0.279999-0.940001,0.279999-1.540001
	c0-0.599998-0.093399-1.1134-0.279999-1.539999c-0.186703-0.433401-0.456703-0.763401-0.810001-0.99
	c-0.346699-0.2334-0.766701-0.35-1.260002-0.35c-0.486698,0-0.906696,0.1166-1.259998,0.35
	c-0.346699,0.226599-0.6134,0.556599-0.799999,0.99c-0.186699,0.4266-0.279999,0.940001-0.279999,1.539999
	c0,0.6,0.0933,1.1133,0.279999,1.540001c0.1866,0.4266,0.4533,0.7533,0.799999,0.98
	C33.564602,27.4869,33.9846,27.6003,34.471298,27.6003z"/>
</svg>
