<?xml version="1.0" encoding="utf-8"?>
<!-- Generator: Adobe Illustrator 28.5.0, SVG Export Plug-In . SVG Version: 9.03 Build 54727)  -->
<svg version="1.1" id="Layer_1" xmlns="http://www.w3.org/2000/svg" xmlns:xlink="http://www.w3.org/1999/xlink" x="0px" y="0px"
	 viewBox="0 0 60 60" enable-background="new 0 0 60 60" xml:space="preserve">
<path fill="none" stroke="#141E12" d="M53.766602,16.297899c0.002499,0.042101,0.005901,0.0895,0.008801,0.1416
	c0.014599,0.2644,0.032501,0.654699,0.045898,1.154301c0.026798,0.9998,0.0354,2.437401-0.039101,4.1796
	c-0.148998,3.486599-0.628498,8.185101-1.9482,13.046898C49.1991,44.527,43.2533,54.779999,30,57.4883
	C16.746799,54.779999,10.8009,44.527,8.166,34.820301C6.8463,29.9585,6.3667,25.26,6.2178,21.773399
	c-0.0744-1.742201-0.0658-3.1798-0.0391-4.1796c0.0134-0.499599,0.0313-0.8899,0.0459-1.154301
	c0.0029-0.052099,0.0053-0.099501,0.0078-0.1416L30,2.5762L53.766602,16.297899z"/>
<path fill="none" stroke="#141E12" d="M49.890099,18.444099c0.001598,0.027201,0.0042,0.056601,0.005901,0.0879
	c0.012199,0.2304,0.027802,0.5704,0.039101,1.0058c0.0224,0.871201,0.029202,2.1231-0.033199,3.640699
	c-0.125099,3.0373-0.528099,7.1287-1.635799,11.355398c-2.212002,8.440601-7.193298,17.298798-18.2666,19.570297
	c-11.072401-2.2719-16.053699-11.130001-18.2656-19.570297c-1.1077-4.2267-1.5107-8.3181-1.6358-11.3554
	c-0.0624-1.5175-0.0556-2.769501-0.0332-3.640699c0.0113-0.4354,0.0269-0.7754,0.0391-1.0058
	c0.0017-0.0313,0.0033-0.060699,0.0049-0.0879L29.9995,6.9597L49.890099,18.444099z"/>
<path fill="#141E12" d="M20.3283,44.011002v-4.888h-1.743999v-0.792h4.352001v0.792h-1.743999v4.888H20.3283z M23.5236,45.210999
	v-0.695999h0.52c0.143999,0,0.2507-0.021301,0.32-0.063999s0.1227-0.1147,0.16-0.216l0.136-0.352001h-0.264L22.8596,39.755001h0.896
	l1.167999,3.344002l1.112-3.344002h0.903999L25.243599,44.507c-0.0853,0.2453-0.213301,0.424-0.384001,0.535999
	c-0.1653,0.112-0.397301,0.167999-0.695999,0.167999H23.5236z M27.518,45.210999v-5.456001h0.799999l0.024,0.911999l-0.096001-0.048
	c0.1066-0.314701,0.2826-0.551998,0.528-0.712002c0.2453-0.165298,0.528-0.248001,0.848-0.248001
	c0.416,0,0.757299,0.104,1.024,0.312c0.271999,0.202702,0.472,0.472,0.6,0.807999
	c0.133301,0.335999,0.200001,0.703999,0.200001,1.104s-0.0667,0.768002-0.200001,1.104
	c-0.128,0.335999-0.327999,0.608002-0.6,0.816002c-0.266701,0.202702-0.608,0.304001-1.024,0.304001
	c-0.2134,0-0.413401-0.0373-0.6-0.112c-0.186701-0.074699-0.346701-0.178699-0.48-0.312
	c-0.128-0.138699-0.2187-0.3013-0.271999-0.487999l0.096001-0.096001v2.112L27.518,45.210999z M29.469999,43.370998
	c0.341299,0,0.608-0.130699,0.799999-0.391998c0.1973-0.261299,0.296-0.626701,0.296-1.096001s-0.0987-0.834702-0.296-1.096001
	C30.077999,40.5257,29.811298,40.395,29.469999,40.395c-0.224001,0-0.418699,0.056-0.584,0.167999
	c-0.1654,0.106701-0.2934,0.271999-0.384001,0.495998c-0.0907,0.223999-0.136,0.498699-0.136,0.824001
	s0.042601,0.599998,0.128,0.824001c0.090599,0.223999,0.218599,0.391998,0.384001,0.504002
	C29.048599,43.317699,29.246,43.370998,29.469999,43.370998z M34.058998,44.106998c-0.416,0-0.776001-0.090698-1.080002-0.271999
	c-0.298599-0.181301-0.530602-0.439999-0.695999-0.776001c-0.16-0.335999-0.240002-0.728001-0.240002-1.175999
	S32.122997,41.0457,32.282997,40.715c0.165401-0.335999,0.3974-0.5947,0.695999-0.776001
	c0.298698-0.186699,0.6507-0.279999,1.056-0.279999c0.383999,0,0.722698,0.090698,1.015999,0.271999
	c0.2934,0.175999,0.52,0.431999,0.68,0.768002c0.165401,0.335999,0.248001,0.741299,0.248001,1.216v0.216h-3.056
	c0.0214,0.416,0.130699,0.728001,0.327999,0.936001c0.202702,0.208,0.474701,0.312,0.815998,0.312
	c0.250702,0,0.458698-0.058701,0.624001-0.175999c0.165401-0.117298,0.279999-0.2747,0.344002-0.472l0.880001,0.056
	c-0.112,0.394699-0.333302,0.714699-0.664001,0.959999C34.925701,43.987,34.5284,44.106998,34.058998,44.106998z M32.923,41.491001
	h2.16c-0.0266-0.3787-0.136002-0.658699-0.327999-0.84c-0.1866-0.181301-0.426601-0.271999-0.720001-0.271999
	c-0.304001,0-0.5546,0.096001-0.751999,0.287998C33.091,40.853699,32.971001,41.1283,32.923,41.491001z M39.773701,44.011002v-4.048
	H38.5737v-0.695999h0.487999c0.213402,0,0.3867-0.026699,0.52-0.080002c0.1334-0.058701,0.229401-0.154701,0.287998-0.287998
	c0.058701-0.138699,0.088001-0.327999,0.088001-0.568001h0.68v5.68H39.773701z"/>
<path fill="#141E12" d="M18.604099,36.656601c-0.5466,0-1.0233-0.103401-1.43-0.310001
	c-0.406601-0.206699-0.73-0.490002-0.969999-0.849998c-0.2333-0.366699-0.37-0.790001-0.41-1.27l0.9-0.060001
	c0.0467,0.353298,0.15,0.653301,0.309999,0.900002c0.16,0.246601,0.3734,0.4333,0.639999,0.560001
	c0.273399,0.126598,0.6,0.189999,0.98,0.189999c0.333401,0,0.616699-0.0434,0.85-0.130001
	c0.2334-0.0867,0.41-0.213402,0.530001-0.380001c0.126699-0.166698,0.190001-0.369999,0.190001-0.610001
	c0-0.220001-0.053301-0.413399-0.16-0.580002c-0.1-0.173401-0.2966-0.330002-0.59-0.470001
	c-0.2866-0.146702-0.713301-0.290001-1.280001-0.43c-0.5466-0.139999-0.983299-0.2934-1.309999-0.459999
	c-0.32-0.166698-0.553301-0.369999-0.700001-0.610001c-0.139999-0.24-0.21-0.536699-0.21-0.889999c0-0.4,0.0934-0.75,0.28-1.049999
	c0.193399-0.3067,0.4667-0.5434,0.82-0.709999c0.353399-0.173401,0.773399-0.26,1.26-0.26c0.52,0,0.9667,0.1,1.34,0.299999
	c0.3734,0.1933,0.67,0.459999,0.889999,0.799999s0.356701,0.726601,0.41,1.16l-0.9,0.059999
	c-0.040001-0.286699-0.133301-0.540001-0.280001-0.76c-0.139999-0.2267-0.3333-0.4034-0.58-0.530001
	c-0.246599-0.126699-0.5466-0.190001-0.9-0.190001c-0.440001,0-0.790001,0.1066-1.049999,0.32
	c-0.26,0.2066-0.389999,0.48-0.389999,0.82c0,0.219999,0.049999,0.403299,0.15,0.549999
	c0.106701,0.139999,0.2934,0.2666,0.559999,0.379999c0.266701,0.106602,0.65,0.223301,1.15,0.349998
	c0.593399,0.146599,1.0634,0.323299,1.41,0.529999c0.353399,0.200001,0.603399,0.4333,0.75,0.700001
	c0.1534,0.266602,0.23,0.57,0.23,0.91c0,0.4133-0.1066,0.7733-0.32,1.080002
	c-0.213301,0.299999-0.506599,0.533298-0.879999,0.700001C19.5208,36.576599,19.090799,36.656601,18.604099,36.656601z
	 M25.330601,36.656601c-0.6733,0-1.2533-0.146702-1.74-0.439999c-0.48-0.299999-0.85-0.7267-1.110001-1.279999
	c-0.26-0.553398-0.389999-1.213402-0.389999-1.98c0-0.766701,0.129999-1.426701,0.389999-1.98
	c0.26-0.559999,0.629999-0.99,1.110001-1.290001c0.4867-0.299999,1.0667-0.450001,1.74-0.450001c0.68,0,1.26,0.15,1.74,0.450001
	c0.4867,0.299999,0.860001,0.73,1.120001,1.290001c0.26,0.553301,0.389999,1.213299,0.389999,1.98
	c0,0.766602-0.129999,1.426601-0.389999,1.98c-0.26,0.553299-0.633301,0.98-1.120001,1.279999
	C26.590599,36.509899,26.010599,36.656601,25.330601,36.656601z M25.330601,35.816601c0.493401,0,0.913401-0.1134,1.26-0.34
	c0.353399-0.2267,0.6234-0.553398,0.809999-0.98c0.186701-0.426701,0.280001-0.939999,0.280001-1.540001
	s-0.0933-1.1134-0.280001-1.540001c-0.1866-0.433399-0.4566-0.763399-0.809999-0.99c-0.3466-0.2334-0.7666-0.35-1.26-0.35
	c-0.486601,0-0.906601,0.1166-1.26,0.35c-0.3466,0.226601-0.6133,0.556601-0.799999,0.99
	c-0.1866,0.4266-0.280001,0.939999-0.280001,1.540001s0.093399,1.1133,0.280001,1.540001
	c0.186701,0.426601,0.4534,0.7533,0.799999,0.98C24.424,35.703201,24.844,35.816601,25.330601,35.816601z M32.673199,36.656601
	c-0.633301,0-1.190001-0.146702-1.67-0.439999c-0.48-0.299999-0.8533-0.7267-1.120001-1.279999
	c-0.266701-0.553398-0.4-1.213402-0.4-1.98c0-0.766701,0.133301-1.426701,0.4-1.98
	c0.266701-0.559999,0.639999-0.99,1.120001-1.290001s1.036699-0.450001,1.67-0.450001c0.860001,0,1.526699,0.2166,2,0.65
	c0.473301,0.4333,0.783298,1.0233,0.93,1.77l-0.91,0.059999c-0.099998-0.506701-0.313301-0.9067-0.639999-1.200001
	c-0.326698-0.2934-0.786701-0.440001-1.380001-0.440001c-0.4533,0-0.8533,0.1166-1.200001,0.35
	c-0.34,0.226601-0.606701,0.556601-0.799999,0.99c-0.1933,0.4266-0.290001,0.940001-0.290001,1.539999
	s0.096701,1.1133,0.290001,1.540001c0.1933,0.426601,0.459999,0.7533,0.799999,0.98c0.346701,0.226601,0.7467,0.34,1.200001,0.34
	c0.619999,0,1.099998-0.16,1.439999-0.48c0.34-0.326698,0.553299-0.766701,0.639999-1.32l0.91,0.060001
	c-0.0867,0.513302-0.256699,0.963299-0.509998,1.349998c-0.2533,0.3866-0.59,0.689999-1.009998,0.91
	C33.7299,36.5499,33.239899,36.656601,32.673199,36.656601z M39.164501,36.496601c0-0.5,0.076599-0.950001,0.23-1.349998
	c0.16-0.4067,0.4366-0.7934,0.830002-1.16c0.400002-0.366699,0.9533-0.736698,1.66-1.110001
	c0.326599-0.173401,0.59-0.333401,0.790001-0.48c0.200001-0.146702,0.3466-0.303398,0.439999-0.469999
	c0.0933-0.1667,0.139999-0.370001,0.139999-0.610001c0-0.2467-0.053398-0.459999-0.16-0.639999
	c-0.106701-0.186701-0.266701-0.333401-0.48-0.440001c-0.206699-0.106701-0.466702-0.16-0.779999-0.16
	c-0.5,0-0.896702,0.129999-1.189999,0.389999c-0.286701,0.26-0.466702,0.629999-0.540001,1.110001l-0.900002-0.059999
	c0.080002-0.693399,0.3466-1.2467,0.799999-1.66c0.4533-0.413401,1.063301-0.620001,1.830002-0.620001
	c0.486599,0,0.903301,0.086599,1.25,0.26c0.3466,0.1733,0.610001,0.416599,0.790001,0.73
	c0.1866,0.306601,0.279999,0.6633,0.279999,1.07c0,0.360001-0.060001,0.6733-0.18,0.940001
	c-0.119999,0.259998-0.323399,0.5033-0.610001,0.73c-0.279999,0.226601-0.666698,0.470001-1.16,0.73
	c-0.639999,0.34-1.126701,0.6833-1.459999,1.029999c-0.326698,0.3466-0.5,0.656601-0.52,0.93h3.93v0.84H39.164501z"/>
<path fill="#141E12" d="M15.9129,27.0574l2.56-7.1h1.16l2.559999,7.1h-0.940001l-0.709999-2.02h-2.98l-0.709999,2.02H15.9129z
	 M17.8529,24.197399h2.4l-1.200001-3.49L17.8529,24.197399z M23.1173,27.0574v-7.1h0.860001v7.1H23.1173z M28.395901,27.2174
	c-0.6334,0-1.190001-0.1467-1.67-0.440001c-0.48-0.299999-0.853399-0.7267-1.120001-1.280001c-0.266701-0.5534-0.4-1.2134-0.4-1.98
	c0-0.766701,0.133301-1.426701,0.4-1.98c0.2666-0.559999,0.639999-0.99,1.120001-1.290001s1.0366-0.450001,1.67-0.450001
	c0.860001,0,1.5266,0.2166,2,0.65c0.473301,0.4333,0.7833,1.0233,0.93,1.77l-0.91,0.059999
	c-0.1-0.506701-0.3134-0.9067-0.639999-1.200001c-0.3267-0.2934-0.786699-0.440001-1.379999-0.440001
	c-0.4534,0-0.853399,0.1166-1.200001,0.35c-0.34,0.226601-0.606701,0.556601-0.799999,0.99
	c-0.193399,0.4266-0.290001,0.940001-0.290001,1.539999s0.0966,1.1133,0.290001,1.540001
	c0.1933,0.4266,0.459999,0.7533,0.799999,0.98c0.3466,0.226601,0.746599,0.34,1.200001,0.34c0.620001,0,1.1-0.16,1.440001-0.48
	c0.34-0.3267,0.553301-0.766701,0.639999-1.32l0.91,0.059999c-0.0867,0.5133-0.256701,0.963301-0.51,1.35
	c-0.253401,0.3866-0.59,0.690001-1.01,0.91C29.452499,27.110701,28.9625,27.2174,28.395901,27.2174z M32.726601,27.0574v-7.1
	H35.2766c0.7934,0,1.41,0.190001,1.849998,0.57s0.66,0.906599,0.66,1.58c0,0.4533-0.099998,0.8466-0.299999,1.18
	c-0.200001,0.326599-0.486599,0.576599-0.860001,0.75c-0.373299,0.1733-0.823299,0.26-1.349998,0.26h-1.689999v2.76H32.726601z
	 M33.586601,23.457399H35.2766c0.533401,0,0.933399-0.1134,1.200001-0.34c0.273399-0.2267,0.41-0.5634,0.41-1.01
	c0-0.433399-0.1366-0.76-0.41-0.98c-0.266602-0.219999-0.666599-0.33-1.200001-0.33h-1.689999V23.457399z M37.8074,27.0574
	l2.560001-7.1h1.16l2.560001,7.1h-0.939999l-0.709999-2.02h-2.98l-0.709999,2.02H37.8074z M39.747398,24.197399H42.1474
	l-1.200001-3.49L39.747398,24.197399z"/>
</svg>
