<?xml version="1.0" encoding="utf-8"?>
<!-- Generator: Adobe Illustrator 28.5.0, SVG Export Plug-In . SVG Version: 9.03 Build 54727)  -->
<svg version="1.1" id="Layer_1" xmlns="http://www.w3.org/2000/svg" xmlns:xlink="http://www.w3.org/1999/xlink" x="0px" y="0px"
	 viewBox="0 0 60 60" enable-background="new 0 0 60 60" xml:space="preserve">
<path fill="none" stroke="#141E12" d="M53.766602,16.297899c0.002499,0.042101,0.005901,0.0895,0.008801,0.1416
	c0.014599,0.2644,0.032501,0.654699,0.045898,1.154301c0.026798,0.9998,0.0354,2.437401-0.039101,4.1796
	c-0.148998,3.486599-0.628498,8.185101-1.9482,13.046898C49.1991,44.526997,43.2533,54.779999,30,57.488297
	c-13.253201-2.708302-19.1991-12.9613-21.833981-22.667999c-1.31967-4.861801-1.79927-9.560299-1.94825-13.0469
	c-0.07443-1.742201-0.06582-3.1798-0.03906-4.1796c0.01338-0.499599,0.03132-0.8899,0.0459-1.154301
	c0.00287-0.052099,0.00527-0.099501,0.00781-0.1416L30,2.576167L53.766602,16.297899z"/>
<path fill="none" stroke="#141E12" d="M49.890099,18.444099c0.001598,0.027201,0.0042,0.056601,0.005901,0.0879
	c0.012199,0.2304,0.027802,0.5704,0.039101,1.0058c0.0224,0.871201,0.029202,2.1231-0.033199,3.640699
	c-0.125099,3.0373-0.528099,7.1287-1.635799,11.355398c-2.212002,8.440601-7.193298,17.298798-18.2666,19.570297
	c-11.072401-2.2719-16.053699-11.130001-18.2656-19.570297c-1.1077-4.2267-1.5107-8.3181-1.6358-11.3554
	c-0.0624-1.5175-0.0556-2.769501-0.0332-3.640699c0.0113-0.4354,0.0269-0.7754,0.0391-1.0058
	c0.0017-0.0313,0.0033-0.060699,0.0049-0.0879L29.9995,6.959718L49.890099,18.444099z"/>
<path fill="#141E12" d="M18.604099,36.656601c-0.5466,0-1.0233-0.103401-1.43-0.310001
	c-0.406601-0.206699-0.73-0.490002-0.969999-0.849998c-0.2333-0.366699-0.37-0.790001-0.41-1.27l0.9-0.060001
	c0.0467,0.353298,0.15,0.653301,0.309999,0.900002c0.16,0.246601,0.3734,0.4333,0.639999,0.560001
	c0.273399,0.126598,0.6,0.189999,0.98,0.189999c0.333401,0,0.616699-0.0434,0.85-0.130001
	c0.2334-0.0867,0.41-0.213402,0.530001-0.380001c0.126699-0.166698,0.190001-0.369999,0.190001-0.610001
	c0-0.220001-0.053301-0.413399-0.16-0.580002c-0.1-0.173401-0.2966-0.330002-0.59-0.470001
	c-0.2866-0.146702-0.713301-0.290001-1.280001-0.43c-0.5466-0.139999-0.983299-0.2934-1.309999-0.459999
	c-0.32-0.166698-0.553301-0.369999-0.700001-0.610001c-0.139999-0.24-0.21-0.536699-0.21-0.889999c0-0.4,0.0934-0.75,0.28-1.049999
	c0.193399-0.3067,0.4667-0.5434,0.82-0.709999c0.353399-0.173401,0.773399-0.26,1.26-0.26c0.52,0,0.9667,0.1,1.34,0.299999
	c0.3734,0.1933,0.67,0.459999,0.889999,0.799999s0.356701,0.726601,0.41,1.16l-0.9,0.059999
	c-0.040001-0.286699-0.133301-0.540001-0.280001-0.76c-0.139999-0.2267-0.3333-0.4034-0.58-0.530001
	c-0.246599-0.126699-0.5466-0.190001-0.9-0.190001c-0.440001,0-0.790001,0.1066-1.049999,0.32
	c-0.26,0.2066-0.389999,0.48-0.389999,0.82c0,0.219999,0.049999,0.403299,0.15,0.549999
	c0.106701,0.139999,0.2934,0.2666,0.559999,0.379999c0.266701,0.106602,0.65,0.223301,1.15,0.349998
	c0.593399,0.146599,1.0634,0.323299,1.41,0.529999c0.353399,0.200001,0.603399,0.4333,0.75,0.700001
	c0.1534,0.266602,0.23,0.57,0.23,0.91c0,0.4133-0.1066,0.7733-0.32,1.080002
	c-0.213301,0.299999-0.506599,0.533298-0.879999,0.700001C19.520798,36.576591,19.090797,36.656593,18.604099,36.656601z
	 M25.330599,36.656601c-0.6733,0-1.2533-0.146702-1.74-0.439999c-0.48-0.299999-0.85-0.7267-1.110001-1.279999
	c-0.26-0.553398-0.389999-1.213402-0.389999-1.98c0-0.766701,0.129999-1.426701,0.389999-1.98
	c0.26-0.559999,0.629999-0.99,1.110001-1.290001c0.4867-0.299999,1.0667-0.450001,1.74-0.450001c0.68,0,1.26,0.15,1.74,0.450001
	c0.4867,0.299999,0.860001,0.73,1.120001,1.290001c0.26,0.553301,0.389999,1.213299,0.389999,1.98
	c0,0.766602-0.129999,1.426601-0.389999,1.98c-0.26,0.553299-0.633301,0.98-1.120001,1.279999
	C26.590599,36.509903,26.010599,36.656601,25.330599,36.656601z M25.330599,35.816601c0.493401,0,0.913401-0.1134,1.26-0.34
	c0.353399-0.2267,0.6234-0.553398,0.809999-0.98c0.186701-0.426701,0.280001-0.939999,0.280001-1.540001
	s-0.0933-1.1134-0.280001-1.540001c-0.1866-0.433399-0.4566-0.763399-0.809999-0.99c-0.3466-0.2334-0.7666-0.35-1.26-0.35
	c-0.486601,0-0.906599,0.1166-1.26,0.35c-0.3466,0.226601-0.6133,0.556601-0.799999,0.99
	c-0.1866,0.4266-0.280001,0.939999-0.280001,1.540001s0.093401,1.1133,0.280001,1.540001
	c0.186701,0.426601,0.4534,0.7533,0.799999,0.98C24.423998,35.703201,24.843998,35.816601,25.330599,35.816601z
	 M32.673199,36.656601c-0.633301,0-1.190001-0.146702-1.67-0.439999c-0.48-0.299999-0.8533-0.7267-1.120001-1.279999
	c-0.266701-0.553398-0.4-1.213402-0.4-1.98c0-0.766701,0.133301-1.426701,0.4-1.98
	c0.266701-0.559999,0.639999-0.99,1.120001-1.290001s1.036699-0.450001,1.67-0.450001c0.860001,0,1.526699,0.2166,2,0.65
	c0.473301,0.4333,0.783298,1.0233,0.93,1.77l-0.91,0.059999c-0.099998-0.506701-0.313301-0.9067-0.639999-1.200001
	c-0.326698-0.2934-0.786701-0.440001-1.380001-0.440001c-0.4533,0-0.8533,0.1166-1.200001,0.35
	c-0.34,0.226601-0.606701,0.556601-0.799999,0.99c-0.1933,0.4266-0.290001,0.940001-0.290001,1.539999
	s0.096701,1.1133,0.290001,1.540001c0.1933,0.426601,0.459999,0.7533,0.799999,0.98c0.346701,0.226601,0.7467,0.34,1.200001,0.34
	c0.619999,0,1.099998-0.16,1.439999-0.48c0.34-0.326698,0.553299-0.766701,0.639999-1.32l0.91,0.060001
	c-0.0867,0.513302-0.256699,0.963299-0.509998,1.349998c-0.2533,0.3866-0.59,0.689999-1.009998,0.91
	C33.7299,36.5499,33.239899,36.656601,32.673199,36.656601z M39.164497,36.496601c0-0.5,0.076599-0.950001,0.23-1.349998
	c0.16-0.4067,0.4366-0.7934,0.830002-1.16c0.400002-0.366699,0.9533-0.736698,1.66-1.110001
	c0.326599-0.173401,0.59-0.333401,0.790001-0.48c0.200001-0.146702,0.3466-0.303398,0.439999-0.469999
	c0.0933-0.1667,0.139999-0.370001,0.139999-0.610001c0-0.2467-0.053398-0.459999-0.16-0.639999
	c-0.106701-0.186701-0.266701-0.333401-0.48-0.440001c-0.206699-0.106701-0.466702-0.16-0.779999-0.16
	c-0.5,0-0.896702,0.129999-1.189999,0.389999c-0.286701,0.26-0.466702,0.629999-0.540001,1.110001l-0.900002-0.059999
	c0.080002-0.693399,0.3466-1.2467,0.799999-1.66c0.4533-0.413401,1.063301-0.620001,1.830002-0.620001
	c0.486599,0,0.903301,0.086599,1.25,0.26c0.3466,0.1733,0.610001,0.416599,0.790001,0.73
	c0.1866,0.306601,0.279999,0.6633,0.279999,1.07c0,0.360001-0.060001,0.6733-0.18,0.940001
	c-0.119999,0.259998-0.323399,0.5033-0.610001,0.73c-0.279999,0.226601-0.666698,0.470001-1.16,0.73
	c-0.639999,0.34-1.126701,0.6833-1.459999,1.029999c-0.326698,0.3466-0.5,0.656601-0.52,0.93h3.93v0.84H39.164497z"/>
<path fill="#141E12" d="M15.9129,27.0574l2.56-7.1h1.16l2.559999,7.1h-0.940001l-0.709999-2.02h-2.98l-0.709999,2.02H15.9129z
	 M17.8529,24.197399h2.4l-1.200001-3.49L17.8529,24.197399z M23.1173,27.0574v-7.1h0.860001v7.1H23.1173z M28.395901,27.2174
	c-0.6334,0-1.190001-0.1467-1.67-0.440001c-0.48-0.299999-0.853399-0.7267-1.120001-1.280001c-0.266701-0.5534-0.4-1.2134-0.4-1.98
	c0-0.766701,0.133301-1.426701,0.4-1.98c0.2666-0.559999,0.639999-0.99,1.120001-1.290001s1.0366-0.450001,1.67-0.450001
	c0.860001,0,1.5266,0.2166,2,0.65c0.473301,0.4333,0.7833,1.0233,0.93,1.77l-0.91,0.059999
	c-0.1-0.506701-0.3134-0.9067-0.639999-1.200001c-0.3267-0.2934-0.786699-0.440001-1.379999-0.440001
	c-0.4534,0-0.853399,0.1166-1.200001,0.35c-0.34,0.226601-0.606701,0.556601-0.799999,0.99
	c-0.193399,0.4266-0.290001,0.940001-0.290001,1.539999s0.0966,1.1133,0.290001,1.540001
	c0.1933,0.4266,0.459999,0.7533,0.799999,0.98c0.3466,0.226601,0.746599,0.34,1.200001,0.34c0.620001,0,1.1-0.16,1.440001-0.48
	c0.34-0.3267,0.553301-0.766701,0.639999-1.32l0.91,0.059999c-0.0867,0.5133-0.256701,0.963301-0.51,1.35
	c-0.253401,0.3866-0.59,0.690001-1.01,0.91C29.452501,27.110697,28.962502,27.217396,28.395901,27.2174z M32.726601,27.0574v-7.1
	H35.2766c0.7934,0,1.41,0.190001,1.849998,0.57s0.66,0.906599,0.66,1.58c0,0.4533-0.099998,0.8466-0.299999,1.18
	c-0.200001,0.326599-0.486599,0.576599-0.860001,0.75c-0.373299,0.1733-0.823299,0.26-1.349998,0.26h-1.689999v2.76H32.726601z
	 M33.586601,23.457399H35.2766c0.533401,0,0.933399-0.1134,1.200001-0.34c0.273399-0.2267,0.41-0.5634,0.41-1.01
	c0-0.433399-0.1366-0.76-0.41-0.98c-0.266602-0.219999-0.666599-0.33-1.200001-0.33h-1.689999V23.457399z M37.8074,27.0574
	l2.560001-7.1h1.16l2.560001,7.1h-0.939999l-0.709999-2.02h-2.98l-0.709999,2.02H37.8074z M39.747398,24.197399H42.1474
	l-1.200001-3.49L39.747398,24.197399z"/>
<path fill="#141E12" d="M19.9338,44.011002v-4.888H18.1898v-0.792H22.5418v0.792H20.7978v4.888H19.9338z M23.129101,45.210999
	v-0.695999h0.519999c0.144001,0,0.250601-0.021301,0.320002-0.063999c0.0693-0.042702,0.122599-0.1147,0.16-0.216l0.136-0.352001
	h-0.264l-1.536001-4.127998h0.896l1.168001,3.343998l1.112-3.343998h0.903999L24.8491,44.507
	c-0.0854,0.2453-0.2134,0.424-0.384001,0.535999c-0.1654,0.112-0.3974,0.167999-0.695999,0.167999H23.129101z M27.1234,45.210999
	v-5.455997h0.800001L27.947399,40.667l-0.095999-0.048c0.106699-0.314701,0.2827-0.551998,0.528-0.711998
	c0.245399-0.165302,0.528-0.248001,0.848-0.248001c0.416,0,0.757401,0.104,1.024,0.312c0.271999,0.202698,0.472,0.472,0.6,0.807999
	c0.1334,0.336002,0.199999,0.704002,0.199999,1.104c0,0.400002-0.066599,0.768002-0.199999,1.104
	c-0.128,0.336002-0.328001,0.608002-0.6,0.816002c-0.2666,0.202698-0.608,0.303997-1.024,0.303997
	c-0.213301,0-0.4133-0.0373-0.6-0.112c-0.1866-0.074699-0.3466-0.178699-0.48-0.312
	c-0.128-0.138699-0.218599-0.3013-0.271999-0.487999l0.095999-0.096001v2.112H27.1234z M29.075399,43.370998
	c0.3414,0,0.608-0.130699,0.800001-0.391998c0.197399-0.261299,0.296-0.626701,0.296-1.096001s-0.0986-0.834698-0.296-1.096001
	C29.683399,40.5257,29.4168,40.395,29.075399,40.395c-0.223999,0-0.4186,0.056-0.584,0.167999
	c-0.1653,0.106701-0.293301,0.271999-0.383999,0.495998c-0.090601,0.224003-0.136002,0.498703-0.136002,0.824001
	c0,0.325302,0.0427,0.600002,0.128,0.824001c0.0907,0.223999,0.2187,0.391998,0.384001,0.503998
	C28.6541,43.317699,28.8514,43.370998,29.075399,43.370998z M33.664501,44.106998c-0.416,0-0.776001-0.090698-1.080002-0.271999
	c-0.298698-0.181297-0.530701-0.439999-0.695999-0.776001c-0.16-0.335999-0.24-0.727997-0.24-1.175999
	c0-0.447998,0.08-0.837299,0.24-1.167999c0.165298-0.335999,0.397301-0.5947,0.695999-0.776001
	c0.298702-0.186699,0.6507-0.279999,1.056-0.279999c0.384003,0,0.722702,0.090698,1.016003,0.271999
	c0.293297,0.175999,0.519997,0.431999,0.679996,0.768002c0.165302,0.335999,0.248001,0.741299,0.248001,1.216v0.216h-3.056
	c0.021301,0.416,0.130699,0.728001,0.327999,0.936001c0.202702,0.208,0.474701,0.312,0.816002,0.312
	c0.250698,0,0.458698-0.058701,0.624001-0.176003c0.165298-0.117298,0.279999-0.2747,0.343998-0.472l0.880001,0.056
	c-0.112,0.394703-0.333302,0.714703-0.664001,0.960003C34.5312,43.987,34.133801,44.106998,33.664501,44.106998z M32.5285,41.491001
	h2.16c-0.026699-0.3787-0.135998-0.658703-0.327999-0.84c-0.186699-0.181301-0.426701-0.271999-0.720001-0.271999
	c-0.304001,0-0.554699,0.095997-0.751999,0.287998C32.696499,40.853699,32.5765,41.1283,32.5285,41.491001z M38.339199,44.011002
	c0-0.426701,0.063999-0.808002,0.192001-1.144001c0.127998-0.336002,0.346699-0.647999,0.655998-0.936001
	c0.309299-0.287998,0.736-0.576,1.280003-0.863998c0.261299-0.133301,0.469299-0.256001,0.624001-0.368
	c0.16-0.117302,0.274696-0.237301,0.343998-0.360001s0.104-0.271999,0.104-0.448002c0-0.181297-0.040001-0.335999-0.119999-0.464001
	c-0.074699-0.133297-0.186703-0.237297-0.336002-0.311996c-0.1493-0.080002-0.338699-0.120003-0.567997-0.120003
	c-0.362701,0-0.650703,0.098701-0.864002,0.296001c-0.208,0.192001-0.338699,0.469299-0.391998,0.832001l-0.896-0.056
	C38.4272,39.4963,38.6432,39.042999,39.0112,38.707001c0.373299-0.336002,0.874699-0.504002,1.504002-0.504002
	c0.4053,0,0.749298,0.072002,1.031998,0.216c0.288002,0.138702,0.506702,0.333302,0.656002,0.584
	C42.357899,39.2537,42.4352,39.5443,42.4352,39.875c0,0.287998-0.048,0.535999-0.144001,0.743999
	c-0.095997,0.208-0.256001,0.402702-0.48,0.584c-0.223999,0.176003-0.528,0.365299-0.911999,0.568001
	c-0.4907,0.261299-0.861301,0.52-1.112,0.776001c-0.250702,0.250698-0.384003,0.474701-0.400002,0.672001h3.048v0.792H38.339199z"/>
</svg>
