<?xml version="1.0" encoding="utf-8"?>
<!-- Generator: Adobe Illustrator 28.5.0, SVG Export Plug-In . SVG Version: 9.03 Build 54727)  -->
<svg version="1.1" id="Layer_1" xmlns="http://www.w3.org/2000/svg" xmlns:xlink="http://www.w3.org/1999/xlink" x="0px" y="0px"
	 viewBox="0 0 60 60" enable-background="new 0 0 60 60" xml:space="preserve">
<path fill="none" stroke="#141E12" d="M53.766602,16.297899c0.002499,0.042101,0.005901,0.0895,0.008801,0.1416
	c0.014599,0.2644,0.032501,0.654699,0.045898,1.154301c0.026798,0.9998,0.0354,2.437401-0.039101,4.1796
	c-0.148998,3.486599-0.628498,8.185101-1.9482,13.046898C49.1991,44.526997,43.2533,54.779999,30,57.488297
	c-13.253201-2.708302-19.1991-12.9613-21.833981-22.667999c-1.31967-4.861801-1.79927-9.560299-1.94825-13.0469
	c-0.07443-1.742201-0.06582-3.1798-0.03906-4.1796c0.01338-0.499599,0.03132-0.8899,0.0459-1.154301
	c0.00287-0.052099,0.00527-0.099501,0.00781-0.1416L30,2.576167L53.766602,16.297899z"/>
<path fill="none" stroke="#141E12" d="M49.890099,18.444099c0.001598,0.027201,0.0042,0.056601,0.005901,0.0879
	c0.012199,0.2304,0.027802,0.5704,0.039101,1.0058c0.0224,0.871201,0.029202,2.1231-0.033199,3.640699
	c-0.125099,3.0373-0.528099,7.1287-1.635799,11.355398c-2.212002,8.440601-7.193298,17.298798-18.2666,19.570297
	c-11.072401-2.2719-16.053699-11.130001-18.2656-19.570297c-1.1077-4.2267-1.5107-8.3181-1.6358-11.3554
	c-0.0624-1.5175-0.0556-2.769501-0.0332-3.640699c0.0113-0.4354,0.0269-0.7754,0.0391-1.0058
	c0.0017-0.0313,0.0033-0.060699,0.0049-0.0879L29.9995,6.959718L49.890099,18.444099z"/>
<path fill="#141E12" d="M18.6334,36.656601c-0.5466,0-1.0233-0.103401-1.43-0.310001
	c-0.406599-0.206699-0.73-0.489998-0.969999-0.849998c-0.233301-0.366699-0.37-0.790001-0.410001-1.27l0.900001-0.060001
	c0.0467,0.353302,0.15,0.653301,0.309999,0.900002c0.16,0.246601,0.3734,0.4333,0.640001,0.559998
	c0.273399,0.126602,0.599998,0.190002,0.98,0.190002c0.333399,0,0.616699-0.0434,0.85-0.130001
	c0.233398-0.0867,0.41-0.213398,0.529999-0.380001C20.160101,35.1399,20.2234,34.9366,20.2234,34.696602
	c0-0.220001-0.053301-0.413403-0.16-0.580002c-0.1-0.173401-0.2966-0.330002-0.59-0.470001
	c-0.2866-0.146698-0.713301-0.289997-1.280001-0.43c-0.5466-0.139999-0.983299-0.2934-1.309999-0.459999
	c-0.32-0.166698-0.553301-0.369999-0.700001-0.610001C16.0434,31.906601,15.9734,31.6099,15.9734,31.256599
	c0-0.4,0.093399-0.75,0.280001-1.049999c0.193399-0.3067,0.4667-0.5434,0.82-0.710001
	c0.353399-0.173399,0.773399-0.259998,1.26-0.259998c0.519999,0,0.9667,0.099998,1.34,0.299999
	c0.3734,0.1933,0.669998,0.459999,0.889999,0.799999c0.219999,0.34,0.356699,0.726601,0.41,1.16l-0.9,0.060001
	C20.0334,31.269899,19.9401,31.0166,19.7934,30.7966c-0.139999-0.2267-0.3333-0.4034-0.58-0.530001
	c-0.246599-0.126699-0.5466-0.190001-0.9-0.190001c-0.440001,0-0.790001,0.106602-1.050001,0.320002
	c-0.259998,0.2066-0.389999,0.48-0.389999,0.82c0,0.219999,0.050001,0.403299,0.15,0.549999
	c0.106701,0.140001,0.2934,0.2666,0.560001,0.379999c0.266699,0.106602,0.65,0.223301,1.15,0.350002
	c0.593399,0.146599,1.0634,0.323299,1.41,0.529999c0.353399,0.200001,0.603399,0.4333,0.75,0.700001
	c0.1534,0.266598,0.23,0.57,0.23,0.91c0,0.4133-0.1066,0.7733-0.32,1.079998
	c-0.213301,0.300003-0.506599,0.533302-0.879999,0.700001C19.5501,36.576599,19.1201,36.656601,18.6334,36.656601z
	 M25.3599,36.656601c-0.6733,0-1.2533-0.146702-1.74-0.440002c-0.48-0.299999-0.85-0.7267-1.110001-1.279999
	c-0.259998-0.553398-0.389999-1.213398-0.389999-1.98c0-0.766701,0.130001-1.426701,0.389999-1.98
	c0.26-0.560001,0.630001-0.99,1.110001-1.290001c0.4867-0.299999,1.0667-0.449999,1.74-0.449999c0.68,0,1.26,0.15,1.74,0.449999
	c0.4867,0.300001,0.860001,0.73,1.120001,1.290001c0.26,0.553299,0.389999,1.213299,0.389999,1.98
	c0,0.766602-0.129999,1.426601-0.389999,1.98c-0.26,0.553299-0.633301,0.98-1.120001,1.279999
	C26.6199,36.509899,26.0399,36.656601,25.3599,36.656601z M25.3599,35.816601c0.493401,0,0.913401-0.1134,1.26-0.34
	c0.353401-0.2267,0.6234-0.553402,0.809999-0.98C27.6166,34.069901,27.7099,33.556599,27.7099,32.9566
	s-0.0933-1.1134-0.280001-1.540001c-0.1866-0.433399-0.456598-0.763399-0.809999-0.99c-0.3466-0.2334-0.7666-0.35-1.26-0.35
	c-0.486599,0-0.906599,0.1166-1.26,0.35c-0.3466,0.226601-0.613298,0.556601-0.799999,0.99
	c-0.1866,0.426601-0.280001,0.940002-0.280001,1.540001s0.093401,1.1133,0.280001,1.540001
	c0.186701,0.426598,0.4534,0.7533,0.799999,0.98C24.4533,35.703201,24.873301,35.816601,25.3599,35.816601z M32.702499,36.656601
	c-0.633301,0-1.189999-0.146702-1.67-0.440002c-0.48-0.299999-0.8533-0.7267-1.119999-1.279999
	c-0.266701-0.553398-0.4-1.213398-0.4-1.98c0-0.766701,0.133299-1.426701,0.4-1.98
	c0.266699-0.560001,0.639999-0.99,1.119999-1.290001c0.480001-0.299999,1.036699-0.449999,1.67-0.449999
	c0.860001,0,1.526699,0.216599,2,0.65c0.473301,0.4333,0.783302,1.0233,0.93,1.77l-0.91,0.059999
	C34.622501,31.2099,34.409199,30.8099,34.0825,30.5166c-0.326702-0.2934-0.786701-0.440001-1.380001-0.440001
	c-0.4533,0-0.8533,0.1166-1.199999,0.35c-0.34,0.226601-0.606701,0.556601-0.800001,0.99
	c-0.1933,0.426601-0.289999,0.940002-0.289999,1.540001s0.096699,1.1133,0.289999,1.540001
	c0.1933,0.426598,0.460001,0.7533,0.800001,0.98c0.346699,0.226601,0.746698,0.34,1.199999,0.34
	c0.619999,0,1.100002-0.16,1.440002-0.48c0.339996-0.326702,0.553299-0.766701,0.639999-1.32l0.91,0.059998
	c-0.0867,0.513302-0.256702,0.963303-0.510002,1.350002c-0.2533,0.3866-0.59,0.689999-1.009998,0.91
	C33.759201,36.5499,33.269199,36.656601,32.702499,36.656601z M41.603802,36.656601
	c-0.786701,0-1.393402-0.183399-1.820004-0.549999c-0.426697-0.373402-0.656696-0.853401-0.689999-1.440002l0.889999-0.059998
	c0.040001,0.4333,0.2066,0.743298,0.5,0.929996c0.299999,0.186604,0.673302,0.280003,1.120003,0.280003
	c0.306599,0,0.59-0.040001,0.849998-0.119999c0.259998-0.0867,0.470001-0.2234,0.630001-0.410004
	c0.16-0.193398,0.239998-0.449997,0.239998-0.769997c0-0.4734-0.1567-0.82-0.469997-1.040001
	c-0.3134-0.220001-0.7267-0.330002-1.240002-0.330002h-0.560001v-0.84H41.6138c0.419998,0,0.766602-0.083397,1.040001-0.25
	c0.279999-0.166698,0.419998-0.453398,0.419998-0.859999c0-0.366699-0.119999-0.6434-0.360001-0.83
	c-0.233398-0.193399-0.586697-0.290001-1.059998-0.290001c-0.466702,0-0.82,0.09-1.060001,0.27
	c-0.233398,0.18-0.373398,0.4266-0.419998,0.74L39.2738,31.0266c0.066601-0.5334,0.303299-0.9634,0.709999-1.289999
	c0.406601-0.333401,0.963303-0.5,1.670002-0.5c0.48,0,0.893299,0.08,1.239998,0.24c0.3466,0.153299,0.6133,0.373299,0.800003,0.66
	c0.1866,0.2866,0.279999,0.6266,0.279999,1.02c0,0.439999-0.139999,0.796598-0.420002,1.07
	c-0.273399,0.266598-0.68,0.450001-1.219997,0.549999v-0.18c0.579998,0.066601,1.039997,0.2733,1.379997,0.619999
	c0.34,0.346603,0.510002,0.780003,0.510002,1.300003c0,0.453297-0.1134,0.84-0.34,1.16
	c-0.220001,0.32-0.526699,0.563297-0.920002,0.73C42.5704,36.5732,42.1171,36.656601,41.603802,36.656601z"/>
<path fill="#141E12" d="M15.9129,27.0574l2.56-7.1h1.16l2.559999,7.1h-0.940001l-0.709999-2.02h-2.98l-0.710001,2.02H15.9129z
	 M17.8529,24.197399h2.4l-1.199999-3.49L17.8529,24.197399z M23.1173,27.0574v-7.1h0.860001v7.1H23.1173z M28.395901,27.2174
	c-0.6334,0-1.190001-0.1467-1.67-0.440001c-0.480001-0.299999-0.853401-0.7267-1.120001-1.279999
	c-0.266701-0.5534-0.4-1.2134-0.4-1.98c0-0.766701,0.133299-1.426701,0.4-1.980001c0.2666-0.559999,0.639999-0.99,1.120001-1.289999
	c0.48-0.300001,1.0366-0.450001,1.67-0.450001c0.859999,0,1.5266,0.2166,2,0.65c0.473299,0.4333,0.783298,1.0233,0.929998,1.77
	l-0.91,0.059999C30.315901,21.7707,30.102501,21.370701,29.7759,21.0774c-0.3267-0.2934-0.786699-0.440001-1.379999-0.440001
	c-0.453402,0-0.853401,0.1166-1.200001,0.35c-0.34,0.226601-0.606701,0.556601-0.799999,0.99
	c-0.193401,0.4266-0.290001,0.940001-0.290001,1.540001c0,0.599998,0.0966,1.113298,0.290001,1.539999
	c0.193298,0.4266,0.459999,0.7533,0.799999,0.98c0.3466,0.226601,0.746599,0.34,1.200001,0.34
	c0.619999,0,1.099998-0.16,1.439999-0.48c0.34-0.3267,0.553301-0.766701,0.640001-1.32l0.91,0.059999
	c-0.0867,0.5133-0.256701,0.963301-0.51,1.35c-0.253401,0.3866-0.59,0.690001-1.01,0.91
	C29.452499,27.110701,28.9625,27.2174,28.395901,27.2174z M32.726601,27.0574v-7.1H35.2766c0.7934,0,1.41,0.190001,1.849998,0.57
	c0.440002,0.380001,0.66,0.906601,0.66,1.580002c0,0.453299-0.099998,0.8466-0.299999,1.179998
	C37.286598,23.614,37,23.864,36.626598,24.037399c-0.373299,0.1733-0.823299,0.26-1.349998,0.26h-1.689999v2.76H32.726601z
	 M33.586601,23.457399H35.2766c0.533401,0,0.933399-0.1134,1.200001-0.34c0.273399-0.2267,0.41-0.563398,0.41-1.009998
	c0-0.433401-0.1366-0.76-0.41-0.980001c-0.266602-0.219999-0.666599-0.33-1.200001-0.33h-1.689999V23.457399z M37.8074,27.0574
	l2.560001-7.1h1.16l2.559998,7.1H43.1474l-0.709999-2.02h-2.98l-0.710003,2.02H37.8074z M39.747398,24.197399H42.1474
	l-1.200001-3.49L39.747398,24.197399z"/>
</svg>
